<?xml version="1.0" standalone="no"?>
<!DOCTYPE svg PUBLIC "-//W3C//DTD SVG 1.1//EN" "http://www.w3.org/Graphics/SVG/1.1/DTD/svg11.dtd" >
<!--
2013-9-30: Created.
-->
<svg>
<metadata>
Created by iconfont
</metadata>
<defs>

<font id="iconfont" horiz-adv-x="1024" >
  <font-face
    font-family="iconfont"
    font-weight="500"
    font-stretch="normal"
    units-per-em="1024"
    ascent="896"
    descent="-128"
  />
    <missing-glyph />
    
    <glyph glyph-name="sc-icon-changepassword" unicode="&#59031;" d="M229.931 355.541v-360.277h567.168v360.277h-567.168zM182.528 450.389h661.973c26.197 0 47.403-21.248 47.403-47.445v-455.083c0-26.197-21.205-47.403-47.403-47.403h-661.973c-0-0-0-0-0-0-26.165 0-47.378 21.199-47.403 47.358l-0 455.17c0 26.197 21.205 47.445 47.36 47.445zM333.355 444.331v155.179c0 105.643 81.28 190.464 180.48 190.464 98.688 0 179.84-84.864 179.84-190.464-0-0.002-0-0.004-0-0.007 0-26.18 21.223-47.403 47.403-47.403 26.18 0 47.403 21.223 47.403 47.403 0 0.002-0 0.005-0 0.007 0 157.013-122.624 285.269-274.688 285.269-152.491 0-275.243-128.171-275.243-285.269v-155.179c0-26.18 21.223-47.403 47.403-47.403s47.403 21.223 47.403 47.403z"  horiz-adv-x="1024" />

    
    <glyph glyph-name="sc-icon-password" unicode="&#59033;" d="M213.333 0h588.971v374.187h-588.971v-374.187zM164.096 472.619h687.445c27.179 0 49.237-22.059 49.237-49.237v-472.619c0-27.179-22.059-49.237-49.237-49.237h-687.445c-27.193 0-49.237 22.044-49.237 49.237 0 0 0 0 0 0l0 472.619c0 27.179 22.059 49.237 49.237 49.237zM320.725 441.301v155.435c0 104.533 84.011 189.184 187.392 189.184 102.912 0 186.795-84.651 186.795-189.184v-151.168c-0.014-0.432-0.021-0.94-0.021-1.449 0-27.193 22.044-49.237 49.237-49.237 27.193 0 49.237 22.044 49.237 49.237 0 0.51-0.008 1.017-0.023 1.523l0.002 151.094c0 158.72-127.744 287.616-285.227 287.616-157.909 0-285.867-128.853-285.867-287.573v-155.477c0-27.193 22.044-49.237 49.237-49.237 27.193 0 49.237 22.044 49.237 49.237z"  horiz-adv-x="1024" />

    
    <glyph glyph-name="sc-icon-deploy" unicode="&#59034;" d="M78.805 817.237v-866.475c-0-27.193 22.044-49.237 49.237-49.237s49.237 22.044 49.237 49.237v866.475c0 27.193-22.044 49.237-49.237 49.237-27.193 0-49.237-22.044-49.237-49.237zM0.043 541.525c0-65.249 52.895-118.144 118.144-118.144s118.144 52.895 118.144 118.144c0 65.249-52.895 118.144-118.144 118.144-65.249 0-118.144-52.895-118.144-118.144zM354.517 226.475c0-65.249 52.895-118.144 118.144-118.144s118.144 52.895 118.144 118.144c0 65.249-52.895 118.144-118.144 118.144-65.249 0-118.144-52.895-118.144-118.144zM748.373 541.525c0-65.249 52.895-118.144 118.144-118.144s118.144 52.895 118.144 118.144c0 65.249-52.895 118.144-118.144 118.144-65.249 0-118.144-52.895-118.144-118.144zM433.28 817.237v-866.475c0-27.193 22.044-49.237 49.237-49.237s49.237 22.044 49.237 49.237v866.475c0 27.193-22.044 49.237-49.237 49.237s-49.237-22.044-49.237-49.237zM787.755 817.237v-866.475c0.807-26.562 22.533-47.788 49.216-47.788s48.409 21.226 49.214 47.714l0.002 866.549c-0.807 26.562-22.533 47.788-49.216 47.788s-48.409-21.226-49.214-47.714z"  horiz-adv-x="1024" />

    
    <glyph glyph-name="sc-icon-export" unicode="&#59042;" d="M353.92 774.059h488.32c13.141 0 23.68-10.496 23.68-23.552v-278.613c0-27.193 22.044-49.237 49.237-49.237s49.237 22.044 49.237 49.237v278.613c0 0.013 0 0.028 0 0.043 0 67.37-54.614 121.984-121.984 121.984-0.060 0-0.12-0-0.18-0l-508.705 0c-13.056 0-25.6-5.205-34.816-14.421l-218.155-218.155c-9.216-9.216-14.421-21.76-14.421-34.816v-581.845c0.024-67.257 54.553-121.771 121.813-121.771 0.045 0 0.090 0 0.135 0l251.47-0c27.193 0 49.237 22.044 49.237 49.237s-22.044 49.237-49.237 49.237h-251.477c-0.025-0-0.055-0-0.085-0-12.883 0-23.333 10.42-23.381 23.292l-0 561.498 189.312 189.269zM558.891 88.32h353.579c26.562 0.807 47.788 22.533 47.788 49.216s-21.226 48.409-47.714 49.214l-353.653 0.002c-27.193 0-49.237-22.044-49.237-49.237s22.044-49.237 49.237-49.237zM742.656 25.557c-8.595-8.854-13.894-20.95-13.894-34.283 0-27.196 22.047-49.243 49.243-49.243 13.863 0 26.389 5.729 35.338 14.948l143.969 148.407c8.597 8.854 13.897 20.95 13.897 34.284 0 13.906-5.765 26.466-15.035 35.419l-151.908 146.531c-8.906 8.888-21.201 14.384-34.778 14.384-27.193 0-49.237-22.044-49.237-49.237 0-14.204 6.014-27.003 15.635-35.989l116.38-112.24-109.611-112.981zM353.152 825.6l0.469-240.469-238.976 0.683z"  horiz-adv-x="1024" />

    
    <glyph glyph-name="sc-icon-import" unicode="&#59043;" d="M694.699 774.059h-488.363c-0.051 0-0.111 0.001-0.171 0.001-12.984 0-23.509-10.525-23.509-23.509 0-0.015 0-0.030 0-0.046l-0-278.611c0-27.193-22.044-49.237-49.237-49.237-27.193 0-49.237 22.044-49.237 49.237l0 278.613c-0 0.013-0 0.028-0 0.043 0 67.37 54.614 121.984 121.984 121.984 0.060 0 0.12-0 0.18-0l508.748 0c13.056 0 25.6-5.205 34.816-14.421l218.155-218.155c9.216-9.216 14.421-21.76 14.421-34.816v-581.845c-0.024-67.257-54.553-121.771-121.813-121.771-0.045 0-0.090 0-0.135 0l-251.47-0c-27.193 0-49.237 22.044-49.237 49.237s22.044 49.237 49.237 49.237h251.477c13.013 0 23.467 10.453 23.467 23.296v561.493l-189.312 189.269zM104.32 186.752h353.579c27.193 0 49.237-22.044 49.237-49.237s-22.044-49.237-49.237-49.237h-353.579c-27.193 0-49.237 22.044-49.237 49.237s22.044 49.237 49.237 49.237zM281.344 250.752c-9.926 9.041-16.131 22.019-16.131 36.446 0 27.193 22.044 49.237 49.237 49.237 13.812 0 26.295-5.687 35.237-14.847l151.903-146.485c19.627-18.901 20.139-50.176 1.152-69.717l-143.957-148.395c-8.961-9.232-21.486-14.96-35.349-14.96-27.196 0-49.243 22.047-49.243 49.243 0 13.333 5.299 25.428 13.905 34.295l109.599 112.926-116.352 112.256zM695.467 825.6l-0.469-240.469 238.976 0.683z"  horiz-adv-x="1024" />

    
    <glyph glyph-name="sc-icon-delete" unicode="&#59047;" d="M238.503 42.652c0-36.819 29.696-66.337 66.515-66.337h458.485c36.613 0.15 66.265 29.74 66.515 66.315l0 559.438h-591.516v-559.416zM925.429 696.899v-654.247c0-88.821-72.838-161.169-161.926-161.169h-458.485c-0.159-0.001-0.347-0.001-0.534-0.001-89.056 0-161.265 72.131-161.391 161.157l-0 654.259h782.336zM76.31 611.551h915.901c26.312 0 47.683 21.237 47.683 47.416s-21.37 47.416-47.683 47.416h-915.901c-26.312 0-47.683-21.237-47.683-47.416s21.37-47.416 47.683-47.416zM353.013 649.483v85.348c0 21.014 16.963 37.888 38.422 37.888h285.651c21.37 0 38.422-16.785 38.422-37.888v-85.348h95.41v85.348c0 73.55-59.837 132.719-133.832 132.719h-285.651c-0.212 0.001-0.462 0.002-0.713 0.002-73.38 0-132.893-59.373-133.119-132.7l-0-85.37h95.41zM381.596 478.831v-379.281c0-26.179 21.37-47.416 47.727-47.416 26.357 0 47.683 21.237 47.683 47.416v379.281c0 26.179-21.37 47.371-47.683 47.371-26.357 0-47.727-21.192-47.727-47.371zM610.571 478.831v-379.281c0-26.179 21.37-47.416 47.727-47.416 26.312 0 47.683 21.237 47.683 47.416v379.281c0 26.179-21.37 47.371-47.683 47.371-26.357 0-47.727-21.192-47.727-47.371z"  horiz-adv-x="1068" />

    
    <glyph glyph-name="sc-icon-search" unicode="&#59048;" d="M729.754 169.882c-73.788-75.513-176.653-122.339-290.455-122.339-224.208 0-405.965 181.757-405.965 405.965 0 113.815 46.837 216.69 122.287 290.404 73.182 71.498 173.284 115.561 283.678 115.561 224.208 0 405.965-181.757 405.965-405.965 0-110.406-44.073-210.518-115.586-283.703zM652.186 247.45c55.181 53.856 89.403 128.971 89.403 212.078 0 163.611-132.633 296.243-296.243 296.243-83.108 0-158.222-34.222-212.020-89.344-52.112-53.394-84.223-126.397-84.223-206.9 0-163.611 132.633-296.243 296.243-296.243 80.503 0 153.506 32.111 206.9 84.223zM652.186 169.882l248.269-248.269c9.928-9.921 23.639-16.057 38.784-16.057 30.302 0 54.867 24.565 54.867 54.867 0 15.157-6.146 28.879-16.083 38.809l-248.269 248.218c-9.926 9.926-23.638 16.065-38.784 16.065-30.292 0-54.849-24.557-54.849-54.849 0-15.146 6.139-28.858 16.065-38.784z"  horiz-adv-x="1024" />

    
    <glyph glyph-name="sc-icon-warrant" unicode="&#59050;" d="M187.347 302.614c0-104.314 80.896-223.811 177.508-262.456l147.144-58.858 147.144 58.858c96.434 38.556 177.508 158.408 177.508 262.456v358.845l-324.653 111.304-324.653-111.304v-358.845zM125.907 738.482l371.089 127.199c9.795 3.339 20.346 3.339 30.097 0l371-127.199c18.744-6.456 31.343-24.042 31.343-43.898v-391.969c0-142.024-104.181-295.891-235.832-348.605l-164.33-65.714c-11.041-4.452-23.418-4.452-34.46 0l-164.33 65.759c-131.918 52.714-235.876 206.314-235.876 348.561v391.969c0 19.812 12.6 37.443 31.343 43.898zM358.934 454.211c-8.254 7.68-19.359 12.393-31.564 12.393-25.621 0-46.392-20.77-46.392-46.392 0-12.538 4.974-23.914 13.055-32.263l159.020-155.814c19.456-19.055 51.111-17.319 68.385 3.829l212.013 259.695c7.023 8.085 11.304 18.717 11.304 30.348 0 25.621-20.77 46.392-46.392 46.392-14.926 0-28.205-7.049-36.691-17.999l-179.947-220.489-122.791 120.298z"  horiz-adv-x="1024" />

    
    <glyph glyph-name="sc-icon-refresh" unicode="&#59051;" d="M860.341 649.213c-80.295 95.914-200.075 156.478-334 156.478-0.137 0-0.275 0-0.412 0-240.565 0-435.62-195.054-435.62-435.641 0-240.546 195.054-435.6 435.641-435.6 188.141 0 353.25 120.354 412.65 295.773 1.688 4.657 2.665 10.033 2.665 15.638 0 26.073-21.136 47.209-47.209 47.209-20.841 0-38.528-13.505-44.786-32.24-47.206-136.175-174.078-231.957-323.32-231.96-188.412 0.022-341.142 152.766-341.142 341.182 0 188.43 152.752 341.182 341.182 341.182 104.98 0 198.887-47.413 261.473-121.996 9.151-10.954 22.166-17.539 36.719-17.539 26.073 0 47.209 21.136 47.209 47.209 0 11.589-4.176 22.203-11.105 30.419zM722.15 586.459c-17.304-14.727-14.318-33.832 6.382-42.587l183.846-77.85c20.863-8.837 34.937 2.332 31.582 24.75l-31.704 211.337c-3.354 22.5-20.209 28.718-37.391 14.113l-152.713-129.763z"  horiz-adv-x="1024" />

    
    <glyph glyph-name="sc-icon-confirm" unicode="&#59052;" d="M512-100.565c-267.605 0-484.565 216.96-484.565 484.565s216.96 484.565 484.565 484.565c267.605 0 484.565-216.96 484.565-484.565 0-267.605-216.96-484.565-484.565-484.565zM512-9.131c217.12 0 393.131 176.011 393.131 393.131s-176.011 393.131-393.131 393.131c-217.12 0-393.131-176.011-393.131-393.131 0-217.12 176.011-393.131 393.131-393.131zM361.131 423.979c-8.239 8.082-19.537 13.070-32 13.070-25.245 0-45.71-20.465-45.71-45.71 0-12.781 5.246-24.338 13.702-32.633l156.765-153.607c19.2-18.859 50.389-17.109 67.413 3.712l208.981 256c6.413 7.809 10.3 17.904 10.3 28.907 0 25.247-20.467 45.713-45.713 45.713-14.244 0-26.966-6.515-35.35-16.727l-177.386-217.296-121.003 118.571z"  horiz-adv-x="1024" />

    
    <glyph glyph-name="sc-icon-view" unicode="&#59053;" d="M614.4-14.643c184.064 0 357.786 143.462 466.688 384-108.902 240.589-282.624 384-466.688 384-184.064 0-357.786-143.411-466.688-384 108.902-240.538 282.624-384 466.688-384zM37.325 390.861c123.75 290.304 337.459 472.269 577.075 472.269 239.565 0 453.325-181.965 577.075-472.166l9.216-21.504-9.216-21.555c-123.75-290.253-337.459-472.32-577.075-472.32-239.565 0-453.325 182.016-577.075 472.218l-9.216 21.504 9.216 21.504zM614.4 197.478c-103.013 0-186.522 83.509-186.522 186.522 0 103.013 83.509 186.522 186.522 186.522 103.013 0 186.522-83.509 186.522-186.522 0-103.013-83.509-186.522-186.522-186.522zM614.4 307.2c0 0 0 0 0 0 42.415 0 76.8 34.385 76.8 76.8 0 42.415-34.385 76.8-76.8 76.8-0 0-0 0-0 0-42.415-0-76.8-34.385-76.8-76.8 0-42.415 34.385-76.8 76.8-76.8z"  horiz-adv-x="1228" />

    
    <glyph glyph-name="sc-icon-agreement" unicode="&#59054;" d="M859.733 0l-2.133 628.096-179.2 139.904h-507.733v-768h689.067zM72.192-49.237v866.475c0 27.179 22.059 49.237 49.237 49.237h573.952c10.965 0 21.632-3.669 30.293-10.453l211.328-165.035c11.947-9.301 18.901-23.509 18.944-38.613l2.432-701.44c0-0.051 0-0.111 0-0.171 0-27.193-22.044-49.237-49.237-49.237-0 0-0 0-0 0l-787.712-0c-27.193 0-49.237 22.044-49.237 49.237 0 0 0 0 0 0zM318.379 531.712h171.776c0.432-0.014 0.94-0.021 1.449-0.021 27.193 0 49.237 22.044 49.237 49.237 0 27.193-22.044 49.237-49.237 49.237-0.51 0-1.017-0.008-1.523-0.023l-171.702 0.002c-26.562-0.807-47.788-22.533-47.788-49.216 0-26.683 21.226-48.409 47.714-49.214zM318.379 344.619h393.813c0 0 0 0 0 0 21.75 0 39.381 17.632 39.381 39.381 0 21.75-17.632 39.381-39.381 39.381-0 0-0 0-0 0l-393.813-0c-0 0-0 0-0 0-21.75 0-39.381-17.632-39.381-39.381 0-21.75 17.632-39.381 39.381-39.381 0 0 0 0 0 0zM318.379 147.712h295.595c21.75 0 39.381 17.632 39.381 39.381s-17.632 39.381-39.381 39.381h-295.595c-21.75 0-39.381-17.632-39.381-39.381s17.632-39.381 39.381-39.381zM726.613 804.437h-98.56v-246.955h289.536v98.475h-190.976z"  horiz-adv-x="1024" />

    
    <glyph glyph-name="sc-icon-re-login" unicode="&#59055;" d="M454.469 838.4v-230.699c0-31.812 25.788-57.6 57.6-57.6 31.812 0 57.6 25.788 57.6 57.6v230.656c-0 31.812-25.788 57.6-57.6 57.6-31.812 0-57.6-25.788-57.6-57.6zM764.485 767.488l-148.267-176.725c-8.392-9.945-13.493-22.905-13.493-37.056 0-31.829 25.802-57.631 57.631-57.631 17.678 0 33.496 7.959 44.068 20.489l148.337 176.811c8.392 9.945 13.493 22.905 13.493 37.056 0 31.829-25.802 57.631-57.631 57.631-17.678 0-33.496-7.959-44.068-20.489zM956.442 513.877l-227.2-40.064c-27.224-4.941-47.599-28.464-47.599-56.747 0-31.826 25.8-57.626 57.626-57.626 3.543 0 7.012 0.32 10.379 0.932l226.805 39.968c27.224 4.941 47.599 28.464 47.599 56.747 0 31.826-25.8 57.626-57.626 57.626-3.543 0-7.012-0.32-10.379-0.932zM940.442 196.224l-199.765 115.328c-8.268 4.855-18.21 7.723-28.821 7.723-31.835 0-57.643-25.807-57.643-57.643 0-21.223 11.47-39.768 28.549-49.773l200.037-115.433c8.267-4.857 18.209-7.726 28.821-7.726 31.825 0 57.624 25.799 57.624 57.624 0 21.213-11.462 39.749-28.531 49.751zM724.037-36.821l-78.933 216.747c-8.289 22.305-29.395 37.909-54.144 37.909-31.823 0-57.621-25.798-57.621-57.621 0-7.073 1.275-13.849 3.607-20.11l78.803-216.348c8.289-22.305 29.395-37.909 54.144-37.909 31.823 0 57.621 25.798 57.621 57.621 0 7.073-1.275 13.849-3.607 20.11zM408.432-76.245l78.891 216.747c2.202 5.863 3.477 12.639 3.477 19.712 0 31.823-25.798 57.621-57.621 57.621-24.749 0-45.855-15.604-54.014-37.51l-79.063-217.145c-2.201-5.863-3.475-12.639-3.475-19.712 0-31.834 25.807-57.641 57.641-57.641 24.761 0 45.875 15.612 54.035 37.53zM141.296 96.427l199.765 115.328c17.357 10.148 28.832 28.694 28.832 49.92 0 31.829-25.803 57.632-57.632 57.632-10.603 0-20.538-2.863-29.072-7.859l-199.493-115.266c-17.357-10.148-28.832-28.694-28.832-49.92 0-31.829 25.803-57.632 57.632-57.632 10.603 0 20.538 2.863 29.072 7.859zM47.642 400.341l227.2-40.021c3.008-0.557 6.47-0.875 10.005-0.875 31.824 0 57.622 25.798 57.622 57.622 0 28.288-20.384 51.815-47.265 56.694l-227.552 40.117c-3.008 0.557-6.47 0.875-10.005 0.875-31.824 0-57.622-25.798-57.622-57.622 0-28.288 20.384-51.815 47.265-56.694zM171.333 693.376l148.309-176.683c10.646-12.626 26.473-20.592 44.16-20.592 31.838 0 57.648 25.81 57.648 57.648 0 14.151-5.098 27.11-13.559 37.142l-148.281 176.596c-10.646 12.626-26.473 20.592-44.16 20.592-31.838 0-57.648-25.81-57.648-57.648 0-14.151 5.098-27.11 13.559-37.142z"  horiz-adv-x="1024" />

    
    <glyph glyph-name="sc-icon-exit" unicode="&#59056;" d="M153.57 742.43h551.698c25.824 0 46.761 20.933 46.761 46.761s-20.933 46.761-46.761 46.761h-598.473c-25.79 0-46.741-20.946-46.741-46.741v-822.852c0-25.833 20.946-46.774 46.741-46.774h598.517c25.824 0 46.761 20.933 46.761 46.755s-20.933 46.761-46.761 46.761h-551.738v729.33zM466.531 306.245h523.814c0 0 0 0 0 0 25.824 0 46.755 20.933 46.755 46.755 0 25.821-20.933 46.755-46.755 46.755 0 0 0 0 0 0h-523.808c0 0 0 0 0 0-25.821 0-46.755-20.933-46.755-46.755 0-25.824 20.933-46.755 46.761-46.755 0 0 0 0 0 0zM758.283 177.858c-8.551-8.473-13.849-20.225-13.849-33.21 0-25.82 20.929-46.747 46.747-46.747 12.82 0 24.449 5.17 32.899 13.547l213.29 211.46c8.541 8.473 13.83 20.213 13.83 33.199 0 13.529-5.749 25.716-14.935 34.246l-225.062 208.74c-8.352 7.915-19.664 12.787-32.112 12.787-25.812 0-46.733-20.922-46.733-46.733 0-13.674 5.868-25.978 15.238-34.526l189.328-175.623-178.647-177.074z"  horiz-adv-x="1117" />

    
    <glyph glyph-name="sc-icon-download" unicode="&#59058;" d="M172.857 25.291v373.97c0 24.010-19.464 43.475-43.475 43.475s-43.475-19.464-43.475-43.475v-417.404c0-23.987 19.487-43.434 43.475-43.434h765.234c23.987 0 43.434 19.447 43.434 43.434v417.404c0.012 0.388 0.020 0.846 0.020 1.304 0 24.010-19.464 43.475-43.475 43.475-24.010 0-43.474-19.464-43.474-43.474 0-0.458 0.007-0.916 0.021-1.371l-0.002-373.864h-678.287zM462.891 777.73v-487.134c0-24.010 19.464-43.474 43.475-43.474s43.475 19.464 43.475 43.474c0 0 0 0 0 0v487.134c0 24.010-19.464 43.475-43.475 43.475s-43.475-19.464-43.475-43.475zM343.504 506.439c-7.882 7.957-18.813 12.883-30.893 12.883-24.015 0-43.483-19.468-43.483-43.483 0-11.934 4.808-22.747 12.593-30.604l196.587-198.387c7.881-7.949 18.803-12.87 30.876-12.87 12.587 0 23.925 5.349 31.864 13.899l194.112 209.297c7.007 7.69 11.299 17.962 11.299 29.235 0 24.010-19.464 43.474-43.475 43.474-12.422 0-23.627-5.21-31.55-13.564l-163.27-176.028-164.661 166.147z"  horiz-adv-x="1024" />

    
    <glyph glyph-name="sc-icon-setting" unicode="&#59060;" d="M394.771-27.231l56.396 62.464c18.065 20.407 44.326 33.207 73.576 33.207s55.511-12.8 73.486-33.104l56.486-62.567 59.923 24.841-4.286 83.551c-0.127 1.874-0.2 4.063-0.2 6.268 0 54.355 44.063 98.418 98.418 98.418 2.205 0 4.394-0.073 6.563-0.215l83.256-4.232 24.841 59.923-62.464 56.396c-20.407 18.065-33.207 44.326-33.207 73.576s12.8 55.511 33.104 73.486l62.567 56.448-24.841 59.923-83.551-4.286c-1.874-0.127-4.063-0.2-6.268-0.2-54.355 0-98.418 44.063-98.418 98.418 0 2.205 0.073 4.394 0.215 6.563l4.232 83.294-59.923 24.841-56.396-62.502c-18.065-20.407-44.326-33.207-73.576-33.207s-55.511 12.8-73.486 33.104l-56.41 62.605-59.923-24.841 4.286-83.589c0.127-1.874 0.2-4.063 0.2-6.268 0-54.355-44.063-98.418-98.418-98.418-2.205 0-4.394 0.073-6.563 0.215l-83.294 4.27-24.841-59.923 62.502-56.396c20.407-18.065 33.207-44.326 33.207-73.576 0-29.25-12.8-55.511-33.104-73.486l-62.605-56.486 24.841-59.923 83.589 4.286c1.874 0.127 4.063 0.2 6.268 0.2 54.355 0 98.418-44.063 98.418-98.418 0-2.205-0.073-4.394-0.215-6.563l-4.27-83.256 59.923-24.841zM239.54-9.557l4.892 95.573c0.19 3.793-1.138 5.158-4.93 4.93l-95.573-4.855c-32.009-1.631-63.64 18.432-75.966 48.166l-33.83 81.579c-12.288 29.582-4.286 66.257 19.608 87.836l71.377 64.474c2.579 2.276 2.579 4.058 0 6.372l-71.377 64.474c-23.78 21.352-31.934 57.951-19.608 87.723l33.754 81.503c12.288 29.582 43.842 49.835 76.004 48.166l95.573-4.855c3.793-0.19 5.12 1.138 4.93 4.93l-4.892 95.573c-1.631 32.009 18.47 63.64 48.204 75.966l81.579 33.868c29.582 12.288 66.219 4.286 87.799-19.608l64.474-71.377c2.276-2.579 4.058-2.579 6.372 0l64.474 71.377c21.428 23.78 58.027 31.934 87.761 19.608l81.541-33.754c29.544-12.288 49.797-43.842 48.166-76.004l-4.892-95.573c-0.19-3.793 1.138-5.12 4.968-4.93l95.573 4.892c31.972 1.631 63.602-18.47 75.928-48.204l33.83-81.541c12.25-29.582 4.248-66.219-19.646-87.799l-71.377-64.474c-2.579-2.276-2.579-4.058 0-6.372l71.377-64.474c23.817-21.466 31.972-58.027 19.646-87.799l-33.83-81.541c-12.25-29.544-43.804-49.797-75.928-48.166l-95.573 4.892c-3.793 0.19-5.158-1.138-4.93-4.968l4.855-95.573c1.631-31.972-18.432-63.602-48.166-75.928l-81.541-33.83c-29.582-12.25-66.257-4.248-87.836 19.646l-64.474 71.377c-2.276 2.579-4.058 2.579-6.372 0l-64.474-71.377c-21.428-23.817-58.027-31.972-87.799-19.646l-81.503 33.83c-29.582 12.25-49.835 43.804-48.166 75.928zM530.811 166.153c-0.817-0.012-1.782-0.019-2.748-0.019-109.945 0-199.073 89.128-199.073 199.073 0 109.945 89.128 199.073 199.073 199.073 0.966 0 1.931-0.007 2.893-0.021 108.611-1.547 196.18-90.074 196.18-199.053 0-108.979-87.569-197.505-196.18-199.053zM530.811 260.968c0.592-0.012 1.289-0.019 1.988-0.019 57.58 0 104.258 46.678 104.258 104.258 0 57.58-46.678 104.258-104.258 104.258-0.699 0-1.397-0.007-2.093-0.021-56.614-1.115-102.166-47.357-102.166-104.238 0-56.881 45.551-103.123 102.166-104.238z"  horiz-adv-x="1024" />

    
    <glyph glyph-name="sc-icon-cancel-revoke" unicode="&#59063;" d="M156.032 531.712h405.632c172.587 0 310.315-120.832 310.315-265.856 0-145.152-137.984-265.856-310.656-265.856h-109.483c-27.193 0-49.237-22.044-49.237-49.237s22.044-49.237 49.237-49.237h109.44c224.341 0 409.131 161.664 409.131 364.331 0 202.496-184.491 364.288-408.789 364.288h-405.589c-26.562-0.807-47.788-22.533-47.788-49.216 0-26.683 21.226-48.409 47.714-49.214zM379.947 772.864c10.949 9.097 17.868 22.716 17.868 37.951 0 27.193-22.044 49.237-49.237 49.237-12.283 0-23.515-4.498-32.14-11.936l-287.851-242.592 232.832-279.381c9.096-11.54 23.073-18.88 38.766-18.88 27.193 0 49.237 22.044 49.237 49.237 0 12.536-4.685 23.978-12.399 32.67l-170.11 204.152 213.035 179.541zM145.835 775.083l694.485-855.339c9.079-10.462 22.397-17.040 37.251-17.040 27.193 0 49.237 22.044 49.237 49.237 0 11.271-3.787 21.658-10.158 29.957l-694.357 855.222c-9.086 11.84-23.243 19.398-39.165 19.398-27.193 0-49.237-22.044-49.237-49.237 0-12.339 4.539-23.618 12.038-32.258z"  horiz-adv-x="1024" />

    
    <glyph glyph-name="sc-icon-revoke" unicode="&#59064;" d="M156.032 531.712h405.632c172.587 0 310.315-120.832 310.315-265.856 0-145.152-137.984-265.856-310.656-265.856h-109.483c-27.193 0-49.237-22.044-49.237-49.237s22.044-49.237 49.237-49.237h109.44c224.341 0 409.131 161.664 409.131 364.331 0 202.496-184.491 364.288-408.789 364.288h-405.589c-26.562-0.807-47.788-22.533-47.788-49.216 0-26.683 21.226-48.409 47.714-49.214zM379.947 772.864c10.949 9.097 17.868 22.716 17.868 37.951 0 27.193-22.044 49.237-49.237 49.237-12.283 0-23.515-4.498-32.14-11.936l-287.851-242.592 232.832-279.381c9.096-11.54 23.073-18.88 38.766-18.88 27.193 0 49.237 22.044 49.237 49.237 0 12.536-4.685 23.978-12.399 32.67l-170.11 204.152 213.035 179.541z"  horiz-adv-x="1024" />

    
    <glyph glyph-name="sc-icon-info" unicode="&#59065;" d="M170.667 0.427v767.573h523.093l166.144-145.024v-616.32l-689.237-6.229zM958.379-42.155v687.531c0 14.208-6.187 27.733-16.896 37.077l-196.907 171.861c-8.608 7.551-19.961 12.158-32.391 12.16l-590.756-0c-27.136 0-49.237-22.101-49.237-49.237v-866.475c0-27.349 22.315-49.493 49.707-49.237l787.669 7.125c26.995 0.241 48.788 22.169 48.811 49.193zM258.432 659.712h335.616v-98.475h-335.616zM258.475 433.237h453.717v-98.475h-453.717zM258.475 236.288h493.099v-98.432h-493.099z"  horiz-adv-x="1024" />

    
    <glyph glyph-name="sc-icon-help" unicode="&#59068;" d="M512-100.557c-267.633 0-484.557 216.924-484.557 484.557s216.924 484.557 484.557 484.557 484.557-216.924 484.557-484.557-216.924-484.557-484.557-484.557zM512-9.134c217.122 0 393.134 176.012 393.134 393.134s-176.012 393.134-393.134 393.134c-217.122 0-393.134-176.012-393.134-393.134 0-217.122 176.012-393.134 393.134-393.134zM507.904 660.48c-54.149 0-96.584-15.36-128-46.080-32.195-30.72-47.555-73.155-47.555-127.263h83.395c0 31.457 5.816 55.583 18.268 72.417 14.623 19.743 37.274 29.245 68.772 29.245 24.863 0 44.605-6.554 58.491-20.48 13.189-13.926 20.48-32.932 20.48-57.057 0-18.268-6.554-35.84-19.743-51.937l-8.765-10.24c-47.555-42.394-76.063-73.114-85.606-92.897-10.24-19.743-14.623-43.868-14.623-71.68v-10.24h84.132v10.24c0 17.572 3.686 33.669 10.977 48.292 6.554 13.148 16.097 25.6 29.245 35.84 35.103 30.72 56.32 50.463 62.915 57.754 17.531 23.429 27.034 53.412 27.034 89.989 0 44.646-14.623 79.749-43.868 105.349-29.245 26.296-67.994 38.748-115.548 38.748zM494.715 238.428c-16.097 0-29.245-5.12-39.485-15.36-11.715-10.24-16.794-23.388-16.794-39.485s5.079-29.245 16.794-39.485c10.24-10.24 23.388-16.097 39.485-16.097 0.325-0.006 0.708-0.010 1.092-0.010 15.368 0 29.372 5.837 39.917 15.414 10.191 10.196 16.048 24.123 16.048 40.179 0 16.097-5.857 29.245-16.097 39.485-10.327 9.534-24.182 15.381-39.403 15.381-0.547 0-1.093-0.008-1.637-0.023z"  horiz-adv-x="1024" />

    
    <glyph glyph-name="sc-icon-stopped" unicode="&#59069;" d="M512-100.565c-267.605 0-484.565 216.96-484.565 484.565s216.96 484.565 484.565 484.565c267.605 0 484.565-216.96 484.565-484.565 0-267.605-216.96-484.565-484.565-484.565zM512-9.131c217.12 0 393.131 176.011 393.131 393.131s-176.011 393.131-393.131 393.131c-217.12 0-393.131-176.011-393.131-393.131 0-217.12 176.011-393.131 393.131-393.131zM292.565 329.131h438.869c25.249-0 45.717 20.468 45.717 45.717s-20.468 45.717-45.717 45.717l-438.869 0c-25.249-0-45.717-20.468-45.717-45.717s20.468-45.717 45.717-45.717z"  horiz-adv-x="1024" />

    
    <glyph glyph-name="sc-icon-mail" unicode="&#59070;" d="M171.134 765.595c-8.232-8.449-13.309-20.005-13.309-32.749 0-0.067 0-0.137 0.001-0.204v-674.028c-0.001-0.111-0.002-0.242-0.002-0.372 0-25.673 20.811-46.483 46.483-46.483 0.049 0 0.099 0 0.149 0h930.413c0.042 0 0.092 0 0.142 0 25.673 0 46.483 20.811 46.483 46.483 0 0.131-0.001 0.262-0.002 0.392v674.018c0 12.425-4.654 23.59-12.283 31.873l-460.185-560.83-537.891 561.9zM236.555 779.508h866.209l-393.74-479.868z"  horiz-adv-x="1325" />

    
    <glyph glyph-name="sc-icon-phone" unicode="&#59071;" d="M714.566 896h-411.555c-51.479 0-93.556-38.4-93.556-85.364v-853.271c0-46.964 42.077-85.364 93.556-85.364h411.555c51.433 0 93.556 38.447 93.556 85.364v853.271c-0.047 46.964-42.17 85.364-93.603 85.364zM452.655 827.764h112.268c10.287 0 18.711-7.633 18.711-17.082 0-9.402-8.378-17.036-18.711-17.036h-112.268c-10.333 0-18.711 7.633-18.711 17.036 0.047 9.449 8.425 17.082 18.711 17.082zM508.788-93.836c-30.999 0-56.134 22.9-56.134 51.2 0 28.346 25.135 51.2 56.134 51.2 30.999 0 56.18-22.854 56.18-51.2-0.047-28.3-25.135-51.2-56.18-51.2zM770.7 42.682h-523.776v682.682h523.776v-682.682z"  horiz-adv-x="1024" />

    
    <glyph glyph-name="sc-icon-wrong" unicode="&#59074;" d="M512-100.565c-267.605 0-484.565 216.96-484.565 484.565s216.96 484.565 484.565 484.565c267.605 0 484.565-216.96 484.565-484.565 0-267.605-216.96-484.565-484.565-484.565zM512-9.131c217.12 0 393.131 176.011 393.131 393.131s-176.011 393.131-393.131 393.131c-217.12 0-393.131-176.011-393.131-393.131 0-217.12 176.011-393.131 393.131-393.131zM318.037 500.352l310.315-310.315c8.277-8.277 19.711-13.396 32.341-13.396 25.26 0 45.738 20.477 45.738 45.738 0 12.63-5.119 24.064-13.396 32.341l-310.315 310.315c-8.277 8.277-19.711 13.396-32.341 13.396-25.26 0-45.738-20.477-45.738-45.738 0-12.63 5.119-24.064 13.396-32.341zM628.352 577.963l-310.315-310.315c-8.277-8.277-13.396-19.711-13.396-32.341 0-25.26 20.477-45.738 45.738-45.738 12.63 0 24.064 5.119 32.341 13.396l310.315 310.315c8.277 8.277 13.396 19.711 13.396 32.341 0 25.26-20.477 45.738-45.738 45.738-12.63 0-24.064-5.119-32.341-13.396z"  horiz-adv-x="1024" />

    
    <glyph glyph-name="sc-icon-cancel-expedited" unicode="&#59072;" d="M128 768h768v-391.893c0-27.193 22.044-49.237 49.237-49.237s49.237 22.044 49.237 49.237v401.963c-0.194 48.866-39.853 88.405-88.746 88.405-0 0-0-0-0.001-0l-826.965 0c-27.136 0-49.237-22.101-49.237-49.237v-866.475c0-27.179 22.059-49.237 49.237-49.237h395.349c27.193 0 49.237 22.044 49.237 49.237s-22.044 49.237-49.237 49.237h-346.112v768zM275.712 571.093h472.576c0.432-0.014 0.94-0.021 1.449-0.021 27.193 0 49.237 22.044 49.237 49.237 0 27.193-22.044 49.237-49.237 49.237-0.51 0-1.017-0.008-1.523-0.023l-472.502 0.002c-26.562-0.807-47.788-22.533-47.788-49.216s21.226-48.409 47.714-49.214zM275.712 374.187h472.576c0.432-0.014 0.94-0.021 1.449-0.021 27.193 0 49.237 22.044 49.237 49.237 0 27.193-22.044 49.237-49.237 49.237-0.51 0-1.017-0.008-1.523-0.023l-472.502 0.002c-27.193 0-49.237-22.044-49.237-49.237s22.044-49.237 49.237-49.237zM275.712 137.813h196.907c27.193 0 49.237 22.044 49.237 49.237s-22.044 49.237-49.237 49.237h-196.907c-0.432 0.014-0.94 0.021-1.449 0.021-27.193 0-49.237-22.044-49.237-49.237 0-27.193 22.044-49.237 49.237-49.237 0.51 0 1.017 0.008 1.523 0.023zM674.304 165.973l222.805-222.763c7.182-7.497 17.275-12.157 28.456-12.157 21.75 0 39.381 17.632 39.381 39.381 0 11.181-4.66 21.274-12.143 28.442l-222.777 222.819c-7.13 7.13-16.981 11.541-27.861 11.541-21.761 0-39.402-17.641-39.402-39.402 0-10.881 4.41-20.731 11.541-27.861zM897.109 221.696l-222.805-222.805c-7.121-7.127-11.525-16.969-11.525-27.84 0-21.753 17.634-39.387 39.387-39.387 10.882 0 20.733 4.413 27.861 11.547l222.763 222.763c7.134 7.129 11.547 16.98 11.547 27.861 0 21.753-17.634 39.387-39.387 39.387-10.871 0-20.713-4.404-27.84-11.526z"  horiz-adv-x="1024" />

    
    <glyph glyph-name="sc-icon-review" unicode="&#59073;" d="M85.923 788.573h945.245c29.662 0.004 53.706 24.051 53.706 53.713 0 29.663-24.044 53.709-53.706 53.713l-945.245 0c-0.002 0-0.005 0-0.007 0-29.665 0-53.713-24.048-53.713-53.713 0-29.665 24.048-53.713 53.713-53.713 0.003 0 0.005 0 0.008 0zM85.923-113.664h945.245c28.977 0.88 52.132 24.581 52.132 53.69s-23.155 52.81-52.052 53.688l-945.326 0.002c-0.471 0.015-1.025 0.023-1.581 0.023-29.665 0-53.713-24.048-53.713-53.713 0-29.665 24.048-53.713 53.713-53.713 0.556 0 1.11 0.008 1.662 0.025zM370.502 348.207c-93.556-62.371-166.4-198.935-166.4-311.575v-85.876h107.38v85.876c0 76.8 54.924 179.805 118.551 222.208l43.52 29.044c77.265 51.479 65.071 141.498-22.575 170.682l-12.94 4.329c-68.189 22.714-126.557 103.564-126.557 175.337v171.846h-107.38v-171.846c0-114.688 83.037-233.053 190.557-273.873l-24.204-16.151zM912.989 638.231v171.846h-107.38v-171.846c0-71.773-58.368-152.623-126.557-175.337l-12.94-4.329c-87.645-29.231-99.84-119.203-22.575-170.682l43.52-29.044c63.581-42.356 118.551-145.408 118.551-222.208v-85.876h107.38v85.876c0 112.64-72.797 249.251-166.353 311.575l-24.204 16.151c107.52 40.82 190.557 159.185 190.557 273.873z"  horiz-adv-x="1117" />

    
    <glyph glyph-name="sc-icon-review-deadline" unicode="&#59075;" d="M204.203 311.040c0-102.784 79.701-220.587 174.933-258.645l145.067-58.027 145.024 58.027c95.061 38.016 174.933 156.117 174.933 258.688v353.664l-320 109.739-320-109.696v-353.749zM143.616 740.693l365.781 125.44c9.6 3.243 20.053 3.243 29.653 0l365.739-125.44c18.475-6.315 30.891-23.68 30.891-43.221v-386.389c0-139.947-102.699-291.669-232.448-343.595l-162.005-64.811c-10.923-4.352-23.040-4.352-33.963 0l-162.091 64.896c-129.92 51.883-232.405 203.264-232.405 343.467v386.432c0 19.541 12.373 36.907 30.891 43.221zM533.333 603.435c0 25.249-20.468 45.717-45.717 45.717-25.249 0-45.717-20.468-45.717-45.717v-303.189h253.781c0 0 0 0 0 0 25.249 0 45.717 20.468 45.717 45.717 0 25.249-20.468 45.717-45.717 45.717-0 0-0 0-0 0h-162.347v211.755z"  horiz-adv-x="1024" />

    
    <glyph glyph-name="sc-icon-expedited" unicode="&#59076;" d="M128 768h768v-391.893c0-27.193 22.044-49.237 49.237-49.237s49.237 22.044 49.237 49.237v401.963c-0.194 48.866-39.853 88.405-88.746 88.405-0 0-0-0-0.001-0l-826.965 0c-27.136 0-49.237-22.101-49.237-49.237v-866.475c0-27.179 22.059-49.237 49.237-49.237h395.349c27.193 0 49.237 22.044 49.237 49.237s-22.044 49.237-49.237 49.237h-346.112v768zM275.712 571.093h472.576c0.432-0.014 0.94-0.021 1.449-0.021 27.193 0 49.237 22.044 49.237 49.237 0 27.193-22.044 49.237-49.237 49.237-0.51 0-1.017-0.008-1.523-0.023l-472.502 0.002c-26.562-0.807-47.788-22.533-47.788-49.216s21.226-48.409 47.714-49.214zM275.712 374.187h472.576c0.432-0.014 0.94-0.021 1.449-0.021 27.193 0 49.237 22.044 49.237 49.237 0 27.193-22.044 49.237-49.237 49.237-0.51 0-1.017-0.008-1.523-0.023l-472.502 0.002c-27.193 0-49.237-22.044-49.237-49.237s22.044-49.237 49.237-49.237zM275.712 137.813h196.907c27.193 0 49.237 22.044 49.237 49.237s-22.044 49.237-49.237 49.237h-196.907c-0.432 0.014-0.94 0.021-1.449 0.021-27.193 0-49.237-22.044-49.237-49.237 0-27.193 22.044-49.237 49.237-49.237 0.51 0 1.017 0.008 1.523 0.023zM809.643-53.333c-29.525-36.864-41.301-30.336-26.368 14.507l35.925 107.733h-146.133c-23.723 0-30.72 15.232-16.427 33.152l172.117 215.125c29.525 36.907 41.301 30.379 26.368-14.464l-35.925-107.733h146.133c23.723 0 30.72-15.189 16.427-33.109l-172.117-215.125z"  horiz-adv-x="1024" />

    
    <glyph glyph-name="sc-icon-contact" unicode="&#59077;" d="M397.265 310.877s3.863-86.435-136.006-123.392c-139.869-37.004-237.987-112.314-237.987-112.314s387.724-443.625 950.877-19.828c0 0-115.2 80.198-243.2 125.999 0 0-95.697 36.957-163.7 129.536M657.455 830.883s-89.135 118.691-292.678 35.607c0 0-114.502-106.775-101.795-154.205 12.707-47.476 12.707-154.252 12.707-154.252s-89.041-23.738 25.46-118.644c8.611-7.121 38.167-166.074 190.836-201.681 0 0 140.009 11.869 203.636 201.681 0 0 101.795 59.345 38.167 118.691 0 0 76.335 213.504-63.628 272.803h-12.707z"  horiz-adv-x="1024" />

    
    <glyph glyph-name="sc-icon-qq" unicode="&#59078;" d="M146.944 491.427c-5.26-13.964 2.42-22.761 0-75.776-0.652-14.243-62.138-78.755-86.575-145.78-24.204-66.513-27.508-135.959 9.868-163.281 37.376-27.276 72.145 90.857 76.707 73.681 1.955-7.494 4.422-15.313 7.447-23.319 22.961-59.163 60.392-108.44 108.048-145.071-41.022 37.086-82.96 24.658-108.094-18.117-25.135-42.729 7.215-120.46 132.189-120.46 161.327 0 197.353 56.692 200.611 56.413 12.055-0.931 12.893 0 25.6 0 15.593 0 9.123-1.257 23.599 0 7.82 0.698 86.202-67.863 194.7-56.413 184.879 19.409 156.625 81.361 142.103 120.46-15.127 40.82-68.701 59.951-66.327 62.557 44.265 48.966 51.293 78.988 66.327 123.951 6.191 18.479 49.105-101.655 82.106-73.681 13.777 11.636 41.332 60.276 13.777 163.281-27.508 103.005-80.756 126.464-79.593 145.78 2.374 40.215 0.977 68.422-1.024 75.776-9.821 35.375-30.394 27.601-30.394 35.375 0 203.916-153.321 369.199-342.481 369.199-189.114 0-342.388-165.283-342.388-369.152 0-16.198-14.383-4.236-26.159-35.421z"  horiz-adv-x="1024" />

    
    <glyph glyph-name="sc-icon-confirm-expedited" unicode="&#59081;" d="M435.627 75.989c-14.592-18.688-22.059-15.445-16.64 7.595l56.619 239.488h-191.147l265.728 340.352c14.592 18.688 22.016 15.445 16.555-7.595l-57.088-239.488h191.701l-265.728-340.395zM512-128c-282.752 0-512 229.248-512 512s229.248 512 512 512 512-229.248 512-512-229.248-512-512-512zM512-14.208c219.924 0 398.208 178.284 398.208 398.208s-178.284 398.208-398.208 398.208c-219.924 0-398.208-178.284-398.208-398.208 0-219.924 178.284-398.208 398.208-398.208z"  horiz-adv-x="1024" />

    
    <glyph glyph-name="sc-icon-cancel-review" unicode="&#59082;" d="M85.923 788.573h945.245c29.662 0.004 53.706 24.051 53.706 53.713 0 29.663-24.044 53.709-53.706 53.713l-945.245 0c-0.002 0-0.005 0-0.007 0-29.665 0-53.713-24.048-53.713-53.713 0-29.665 24.048-53.713 53.713-53.713 0.003 0 0.005 0 0.008 0zM565.993-6.284h-480.023c-0.471 0.015-1.025 0.023-1.581 0.023-29.665 0-53.713-24.048-53.713-53.713 0-29.665 24.048-53.713 53.713-53.713 0.556 0 1.11 0.008 1.662 0.025l531.608-0.002c-31.354 39.748-52.23 89.103-57.716 143.011zM1081.903-77.638c-2.56-7.354-6.656-13.964-11.916-19.409 19.861 29.2 34.596 63.597 42.002 100.641zM370.502 348.207c-93.556-62.371-166.4-198.935-166.4-311.575v-85.876h107.38v85.876c0 76.8 54.924 179.805 118.551 222.208l43.52 29.044c77.265 51.479 65.071 141.498-22.575 170.682l-12.94 4.329c-68.189 22.714-126.557 103.564-126.557 175.337v171.846h-107.38v-171.846c0-114.688 83.037-233.053 190.557-273.873l-24.204-16.151zM771.491 329.542c-30.338 25.642-66.721 45.178-106.643 56.176l57.584-21.36c107.52 40.82 190.557 159.185 190.557 273.873v171.846h-107.38v-171.846c0-71.773-58.368-152.623-126.557-175.337l-12.94-4.329c-87.645-29.231-99.84-119.203-22.575-170.682l18.711-12.521c40.115 32.728 90.262 54.615 145.194 60.52zM664.204 171.008l243.060-243.060c7.779-7.779 18.525-12.59 30.394-12.59 23.739 0 42.984 19.245 42.984 42.984 0 11.87-4.811 22.616-12.59 30.394l-243.060 243.060c-7.779 7.779-18.525 12.59-30.394 12.59-23.739 0-42.984-19.245-42.984-42.984 0-11.87 4.811-22.616 12.59-30.394zM907.264 231.796l-243.060-243.060c-7.779-7.779-12.59-18.525-12.59-30.394 0-23.739 19.245-42.984 42.984-42.984 11.87 0 22.616 4.811 30.394 12.59l243.060 243.060c7.779 7.779 12.59 18.525 12.59 30.394 0 23.739-19.245 42.984-42.984 42.984-11.87 0-22.616-4.811-30.394-12.59z"  horiz-adv-x="1117" />

    
    <glyph glyph-name="sc-icon-add" unicode="&#59083;" d="M512-34.909c231.357 0 418.909 187.552 418.909 418.909s-187.552 418.909-418.909 418.909c-231.357 0-418.909-187.552-418.909-418.909 0-231.357 187.552-418.909 418.909-418.909zM512-128c-282.764 0-512 229.236-512 512s229.236 512 512 512 512-229.236 512-512-229.236-512-512-512zM465.455 616.727v-465.455c0-25.706 20.839-46.545 46.545-46.545 25.706 0 46.545 20.839 46.545 46.545v465.455c0 25.706-20.839 46.545-46.545 46.545-25.706 0-46.545-20.839-46.545-46.545zM279.273 337.455h465.455c25.706 0 46.545 20.839 46.545 46.545 0 25.706-20.839 46.545-46.545 46.545h-465.455c-25.706-0-46.545-20.839-46.545-46.545 0-25.706 20.839-46.545 46.545-46.545z"  horiz-adv-x="1024" />

    
    <glyph glyph-name="sc-icon-minus" unicode="&#59084;" d="M512-34.909c231.357 0 418.909 187.552 418.909 418.909s-187.552 418.909-418.909 418.909c-231.357 0-418.909-187.552-418.909-418.909 0-231.357 187.552-418.909 418.909-418.909zM512-128c-282.764 0-512 229.236-512 512s229.236 512 512 512 512-229.236 512-512-229.236-512-512-512zM279.273 337.455h465.455c25.706 0 46.545 20.839 46.545 46.545 0 25.706-20.839 46.545-46.545 46.545h-465.455c-25.706-0-46.545-20.839-46.545-46.545 0-25.706 20.839-46.545 46.545-46.545z"  horiz-adv-x="1024" />

    
    <glyph glyph-name="sc-icon-collapse" unicode="&#59085;" d="M917.333 384c0 223.859-181.474 405.333-405.333 405.333s-405.333-181.474-405.333-405.333c0-223.859 181.474-405.333 405.333-405.333 223.859 0 405.333 181.474 405.333 405.333zM1024 384c0-282.752-229.248-512-512-512s-512 229.248-512 512 229.248 512 512 512 512-229.248 512-512zM675.925 269.483c9.58-9.257 22.644-14.961 37.041-14.961 29.455 0 53.333 23.878 53.333 53.333 0 14.407-5.713 27.48-14.996 37.077l-193.052 193.052c-9.652 9.654-22.987 15.626-37.717 15.626s-28.065-5.972-37.717-15.626l-193.067-193.067c-9.269-9.582-14.982-22.655-14.982-37.062 0-29.455 23.878-53.333 53.333-53.333 14.396 0 27.461 5.704 37.056 14.976l155.377 155.377 155.392-155.392z"  horiz-adv-x="1024" />

    
    <glyph glyph-name="sc-icon-expansion" unicode="&#59086;" d="M917.333 384c0-223.859-181.474-405.333-405.333-405.333s-405.333 181.474-405.333 405.333c0 223.859 181.474 405.333 405.333 405.333 223.859 0 405.333-181.474 405.333-405.333zM1024 384c0 282.752-229.248 512-512 512s-512-229.248-512-512 229.248-512 512-512 512 229.248 512 512zM675.925 498.517c9.58 9.257 22.644 14.961 37.041 14.961 29.455 0 53.333-23.878 53.333-53.333 0-14.407-5.713-27.48-14.996-37.077l-193.052-193.052c-9.652-9.654-22.987-15.626-37.717-15.626s-28.065 5.972-37.717 15.626l-193.067 193.067c-9.269 9.582-14.982 22.655-14.982 37.062 0 29.455 23.878 53.333 53.333 53.333 14.396 0 27.461-5.704 37.056-14.976l155.377-155.377 155.392 155.392z"  horiz-adv-x="1024" />

    
    <glyph glyph-name="sc-icon-receipt-management" unicode="&#59089;" d="M817.237 768v-380.885h98.475v479.36h-807.424v-282.795h98.475v184.32zM275.712 620.288h472.576v78.805h-472.576zM551.381 462.763h196.907v78.763h-196.907zM128 0h768v334.251l-327.125-3.371c-0.146-0.002-0.318-0.002-0.49-0.002-20.568 0-38.19 12.611-45.556 30.523l-68.471 170.312h-326.357v-531.712zM905.088 432.811c0.368 0.006 0.802 0.009 1.237 0.009 48.642 0 88.081-39.398 88.149-88.024l0-354.823c0-0.038 0-0.084 0-0.129 0-48.778-39.542-88.32-88.32-88.32-0.15 0-0.3 0-0.45 0.001l-787.433-0c-0.051-0-0.111-0-0.171-0-48.919 0-88.576 39.657-88.576 88.576 0 0.030 0 0.060 0 0.090l-0 551.334c0 48.896 39.552 88.619 88.448 88.619h369.664c20.096 0 38.187-12.203 45.653-30.848l68.224-169.6 303.573 3.115z"  horiz-adv-x="1024" />

    
    <glyph glyph-name="sc-icon-delete-agreement" unicode="&#59091;" d="M867.84-9.131l-2.133 642.432-184.192 143.829h-519.979v-786.261h706.304zM70.101-54.869v877.739c0 25.216 20.48 45.696 45.696 45.696h581.419c10.197 0 20.053-3.413 28.16-9.685l214.059-167.168c11.051-8.619 17.493-21.845 17.579-35.883l2.432-710.528c0-0.051 0-0.111 0-0.171 0-25.237-20.459-45.696-45.696-45.696-0 0-0 0-0 0l-797.952-0c-25.216 0-45.696 20.48-45.696 45.696zM724.651 809.899h-91.435v-246.016h289.152v91.477h-197.717zM354.133 385.749l269.568-269.568c6.617-6.617 15.759-10.71 25.856-10.71 20.195 0 36.566 16.371 36.566 36.566 0 10.097-4.093 19.239-10.71 25.856l-269.568 269.611c-6.62 6.61-15.761 10.697-25.856 10.697-20.211 0-36.596-16.385-36.596-36.596 0-10.116 4.105-19.274 10.74-25.898zM623.701 437.504l-269.568-269.653c-6.181-6.534-9.981-15.376-9.981-25.106 0-20.194 16.371-36.565 36.565-36.565 9.74 0 18.591 3.809 25.145 10.018l269.551 269.552c6.626 6.621 10.725 15.77 10.725 25.877 0 20.203-16.378 36.581-36.581 36.581-10.096 0-19.237-4.090-25.856-10.704z"  horiz-adv-x="1024" />

    
    <glyph glyph-name="sc-icon-review-details" unicode="&#59092;" d="M82.187 793.244h904.147c28.375 0 51.378 23.003 51.378 51.378s-23.003 51.378-51.378 51.378h-904.147c-28.375 0-51.378-23.003-51.378-51.378s23.003-51.378 51.378-51.378zM567.875 32.946h-485.688c-0.451 0.014-0.98 0.022-1.512 0.022-28.375 0-51.378-23.003-51.378-51.378 0-28.375 23.003-51.378 51.378-51.378 0.532 0 1.062 0.008 1.59 0.024l519.759-0.002c-21.141 37.545-34.456 82.053-36.613 129.47zM354.393 372.024c-89.489-59.659-159.165-190.286-159.165-298.029v-82.143h102.712v82.143c0 73.461 52.536 171.987 113.397 212.547l41.628 27.782c73.906 49.241 62.241 135.346-21.593 163.261l-12.377 4.141c-65.224 21.727-121.055 99.061-121.055 167.713v164.374h-102.712v-164.374c0-109.702 79.427-222.92 182.272-261.966l-23.151-15.449zM745.249 347.804c-30.463 27.515-67.397 48.482-108.208 60.333l53.98-20.664c102.845 39.046 182.272 152.264 182.272 261.966v164.374h-102.712v-164.374c0-68.653-55.83-145.987-121.055-167.713l-12.377-4.141c-83.834-27.96-95.499-114.020-21.593-163.261l39.847-26.579c39.748 38.707 90.352 66.451 146.815 78.236zM823.652 228.174c0.129 0 0.282 0.001 0.436 0.001 42.894 0 81.713-17.446 109.749-45.629 28.2-28.137 45.641-67.033 45.641-110.002 0-0.069-0-0.138-0-0.206 0-0.119 0.001-0.272 0.001-0.425 0-42.894-17.446-81.713-45.629-109.749-28.137-28.2-67.033-45.641-110.002-45.641-0.069 0-0.138 0-0.206 0-0.119-0-0.272-0.001-0.425-0.001-42.894 0-81.713 17.446-109.749 45.629-28.2 28.137-45.641 67.033-45.641 110.002 0 0.069 0 0.138 0 0.206-0 0.119-0.001 0.272-0.001 0.425 0 42.894 17.446 81.713 45.629 109.749 28.137 28.2 67.033 45.641 110.002 45.641 0.069 0 0.138-0 0.206-0zM823.652 272.696c-110.649-0-200.348-89.699-200.348-200.348s89.699-200.348 200.348-200.348c110.649 0 200.348 89.699 200.348 200.348 0 110.649-89.699 200.348-200.348 200.348zM801.391 157.295c0-14.569 11.81-26.379 26.379-26.379s26.379 11.81 26.379 26.379c0 0 0 0 0 0 0 14.569-11.81 26.379-26.379 26.379-14.569 0-26.379-11.81-26.379-26.379zM801.391 94.609h52.536v-133.565h-52.536z"  horiz-adv-x="1068" />

    
    <glyph glyph-name="sc-icon-advance-withdrawals" unicode="&#59093;" d="M845.013 91.179c-27.563 7.211-61.397 18.475-81.323 21.547-35.925 5.589-199.467-45.141-244.992-49.237-45.568-4.096-96.896 52.523-130.347 73.856-33.451 21.333-140.757 104.619-140.757 104.619s-5.333 58.667 52.139 43.093c57.429-15.573 145.92-73.856 145.92-73.856s63.787-23.125 108.757-7.253c31.061 11.051 72.448 27.349 88.704 46.891 15.147 18.219 13.483 36.608 0.683 34.219-26.539-4.949-128.64-16.469-156.416-6.144-27.733 10.325-43.264 49.664-31.275 73.813 0 0 36.139 2.475 119.893 24.619 83.797 22.187 104.619 37.589 140.8 18.475 30.635-16.213 127.915-71.339 211.157-91.221 18.731-110.677-89.173-224.469-82.944-213.419zM522.24-117.76c-271.445 0-491.52 220.075-491.52 491.52s220.075 491.52 491.52 491.52c271.445 0 491.52-220.075 491.52-491.52 0-271.445-220.075-491.52-491.52-491.52zM522.24-25.003c220.231 0 398.763 178.532 398.763 398.763s-178.532 398.763-398.763 398.763c-220.231 0-398.763-178.532-398.763-398.763 0-220.231 178.532-398.763 398.763-398.763zM245.76 443.733h351.573v85.333h-351.573zM368.64 566.613h228.565v85.333h-228.565z"  horiz-adv-x="1024" />

    
    <glyph glyph-name="sc-icon-Reported" unicode="&#59095;" d="M311.253 774.059h488.32c13.141 0 23.68-10.496 23.68-23.552v-278.613c0-27.193 22.044-49.237 49.237-49.237s49.237 22.044 49.237 49.237v278.613c0 0.013 0 0.028 0 0.043 0 67.37-54.614 121.984-121.984 121.984-0.060 0-0.12-0-0.18-0l-508.705 0c-13.056 0-25.6-5.205-34.816-14.421l-218.155-218.155c-9.216-9.216-14.421-21.76-14.421-34.816v-581.845c0.024-67.257 54.553-121.771 121.813-121.771 0.045 0 0.090 0 0.135 0l369.614-0c27.193 0 49.237 22.044 49.237 49.237s-22.044 49.237-49.237 49.237h-369.621c-0.025-0-0.055-0-0.085-0-12.883 0-23.333 10.42-23.381 23.292l-0 561.498 189.312 189.269zM847.104-45.013v353.579c0 27.193-22.044 49.237-49.237 49.237s-49.237-22.044-49.237-49.237v-353.579c0-27.193 22.044-49.237 49.237-49.237s49.237 22.044 49.237 49.237zM909.824 138.752c8.854-8.595 20.95-13.894 34.283-13.894 27.196 0 49.243 22.047 49.243 49.243 0 13.863-5.729 26.389-14.948 35.338l-148.407 143.969c-8.854 8.597-20.95 13.897-34.284 13.897-13.906 0-26.466-5.765-35.419-15.035l-146.531-151.908c-8.888-8.906-14.384-21.201-14.384-34.778 0-27.193 22.044-49.237 49.237-49.237 14.204 0 27.003 6.014 35.989 15.635l112.24 116.38 112.981-109.611zM310.485 825.6l0.469-240.469-238.976 0.683z"  horiz-adv-x="1024" />

    
    <glyph glyph-name="sc-icon-purchase" unicode="&#59096;" d="M165.931-4.736v777.429h488.363l173.099-141.227 0.555-172.885c0.085-26.116 21.275-47.254 47.403-47.254 26.18 0 47.403 21.223 47.403 47.403 0 0.053-0 0.105-0 0.157l-0.64 195.32c-0.045 14.73-6.802 27.874-17.372 36.538l-203.556 166.129c-8.094 6.641-18.556 10.667-29.958 10.667-0.013 0-0.026-0-0.039-0l-552.659 0c-26.197 0-47.403-21.205-47.403-47.36v-872.32c0-26.197 21.205-47.403 47.36-47.403h451.797c26.177 0.004 47.396 21.225 47.396 47.403 0 26.177-21.219 47.399-47.395 47.403l-404.352 0zM265.472 507.264h165.461c26.177 0.004 47.396 21.225 47.396 47.403 0 26.177-21.219 47.399-47.395 47.403l-165.462 0c-26.177-0.004-47.396-21.225-47.396-47.403 0-26.177 21.219-47.399 47.395-47.403zM265.472 327.125h379.307c0.379-0.014 0.825-0.021 1.272-0.021 20.949 0 37.931 16.982 37.931 37.931 0 20.949-16.982 37.931-37.931 37.931-0.447 0-0.893-0.008-1.336-0.023l-379.242 0.002c-0.379 0.014-0.825 0.021-1.272 0.021-20.949 0-37.931-16.982-37.931-37.931 0-20.949 16.982-37.931 37.931-37.931 0.447 0 0.893 0.008 1.336 0.023zM265.472 137.472h284.672c0.002-0 0.004-0 0.006-0 20.949 0 37.931 16.982 37.931 37.931 0 20.949-16.982 37.931-37.931 37.931-0.002 0-0.004-0-0.006-0l-284.672 0c-0.002 0-0.004 0-0.006 0-20.949 0-37.931-16.982-37.931-37.931 0-20.949 16.982-37.931 37.931-37.931 0.002 0 0.004 0 0.006 0zM973.227 122.581c0-16.213-13.653-29.269-30.592-29.269h-61.099v-29.312h61.099c16.939 0 30.592-13.056 30.592-29.269 0-16.213-13.653-29.269-30.592-29.269h-61.099v-61.525c0-16.171-13.696-29.269-30.592-29.269-16.853 0-30.592 13.099-30.592 29.269v61.525h-61.099c-16.896 0-30.592 13.099-30.592 29.269 0 16.213 13.653 29.269 30.592 29.269h61.099v29.312h-61.099c-16.896 0-30.592 13.099-30.592 29.269 0 16.171 13.653 29.269 30.592 29.269h61.099v17.067l-85.717 79.445c-5.729 5.218-9.311 12.708-9.311 21.035 0 7.976 3.287 15.185 8.579 20.346 5.682 5.513 13.435 8.907 21.98 8.907 8.195 0 15.66-3.122 21.272-8.241l76.178-70.591 76.203 70.613c5.587 5.097 13.053 8.219 21.247 8.219 8.545 0 16.298-3.395 21.982-8.909 5.291-5.159 8.577-12.368 8.577-20.344 0-8.327-3.581-15.817-9.288-21.014l-90.519-83.818v-12.715h61.099c16.939 0 30.592-13.099 30.592-29.269z"  horiz-adv-x="1024" />

    
    <glyph glyph-name="sc-icon-finalist-purchase" unicode="&#59097;" d="M165.931-4.736v777.429h488.363l173.099-141.227 0.555-172.885c0.085-26.116 21.275-47.254 47.403-47.254 26.18 0 47.403 21.223 47.403 47.403 0 0.053-0 0.105-0 0.157l-0.64 195.32c-0.045 14.73-6.802 27.874-17.372 36.538l-203.556 166.129c-8.094 6.641-18.556 10.667-29.958 10.667-0.013 0-0.026-0-0.039-0l-552.659 0c-26.197 0-47.403-21.205-47.403-47.36v-872.32c0-26.197 21.205-47.403 47.36-47.403h451.797c26.177 0.004 47.396 21.225 47.396 47.403 0 26.177-21.219 47.399-47.395 47.403l-404.352 0zM420.309 344.917l-113.963 88.96-50.347-40.491 196.949-199.552c33.92 86.528 141.312 255.573 272.384 375.68l-12.075 27.819c-142.763-87.211-246.4-197.248-292.949-252.416zM973.227 122.581c0-16.213-13.653-29.269-30.592-29.269h-61.099v-29.312h61.099c16.939 0 30.592-13.056 30.592-29.269 0-16.213-13.653-29.269-30.592-29.269h-61.099v-61.525c0-16.171-13.696-29.269-30.592-29.269-16.853 0-30.592 13.099-30.592 29.269v61.525h-61.099c-16.896 0-30.592 13.099-30.592 29.269 0 16.213 13.653 29.269 30.592 29.269h61.099v29.312h-61.099c-16.896 0-30.592 13.099-30.592 29.269 0 16.171 13.653 29.269 30.592 29.269h61.099v17.067l-85.717 79.445c-5.729 5.218-9.311 12.708-9.311 21.035 0 7.976 3.287 15.185 8.579 20.346 5.682 5.513 13.435 8.907 21.98 8.907 8.195 0 15.66-3.122 21.272-8.241l76.178-70.591 76.203 70.613c5.587 5.097 13.053 8.219 21.247 8.219 8.545 0 16.298-3.395 21.982-8.909 5.291-5.159 8.577-12.368 8.577-20.344 0-8.327-3.581-15.817-9.288-21.014l-90.519-83.818v-12.715h61.099c16.939 0 30.592-13.099 30.592-29.269z"  horiz-adv-x="1024" />

    
    <glyph glyph-name="sc-icon-upload" unicode="&#59094;" d="M141.49-31.032v408.353c-0.004 26.233-21.271 47.498-47.505 47.498-26.234 0-47.501-21.265-47.505-47.497l-0-455.903c0-26.223 21.281-47.505 47.505-47.505h835.807c26.268 0 47.505 21.281 47.505 47.505v455.903c-0.809 25.603-21.758 46.051-47.482 46.051s-46.674-20.448-47.481-45.976l-0.002-408.472h-740.842zM458.262 267.887v532.035c-0.014 0.433-0.022 0.943-0.022 1.454 0 26.236 21.269 47.505 47.505 47.505 26.236 0 47.505-21.269 47.505-47.505 0-0.511-0.008-1.021-0.024-1.528l0.002-531.961c-0.809-25.603-21.758-46.051-47.482-46.051s-46.674 20.448-47.481 45.976zM327.858 564.179c-8.61-8.677-20.54-14.048-33.725-14.048-26.237 0-47.506 21.269-47.506 47.506 0 13.052 5.264 24.875 13.784 33.461l214.725 216.64c8.612 8.691 20.552 14.072 33.748 14.072 13.739 0 26.115-5.832 34.789-15.156l211.995-228.604c8.313-8.546 13.439-20.229 13.439-33.11 0-26.236-21.269-47.505-47.505-47.505-14.132 0-26.823 6.171-35.524 15.965l-178.352 192.293-179.868-181.471z"  horiz-adv-x="1024" />

    
    <glyph glyph-name="sc-icon-collapse-left" unicode="&#59098;" d="M512-21.333c-223.859 0-405.333 181.474-405.333 405.333s181.474 405.333 405.333 405.333c223.859 0 405.333-181.474 405.333-405.333 0-223.859-181.474-405.333-405.333-405.333zM512-128c282.752 0 512 229.248 512 512s-229.248 512-512 512-512-229.248-512-512 229.248-512 512-512zM626.517 220.075c9.257-9.58 14.961-22.644 14.961-37.041 0-29.455-23.878-53.333-53.333-53.333-14.407 0-27.48 5.713-37.077 14.996l-193.052 193.052c-9.654 9.652-15.626 22.987-15.626 37.717s5.972 28.065 15.626 37.717l193.067 193.067c9.582 9.269 22.655 14.982 37.062 14.982 29.455 0 53.333-23.878 53.333-53.333 0-14.396-5.704-27.461-14.976-37.056l-155.377-155.377 155.392-155.392z"  horiz-adv-x="1024" />

    
    <glyph glyph-name="sc-icon-expansion-right" unicode="&#59099;" d="M512-21.333c223.859 0 405.333 181.474 405.333 405.333s-181.474 405.333-405.333 405.333c-223.859 0-405.333-181.474-405.333-405.333 0-223.859 181.474-405.333 405.333-405.333zM512-128c-282.752 0-512 229.248-512 512s229.248 512 512 512 512-229.248 512-512-229.248-512-512-512zM397.483 220.075c-9.257-9.58-14.961-22.644-14.961-37.041 0-29.455 23.878-53.333 53.333-53.333 14.407 0 27.48 5.713 37.077 14.996l193.052 193.052c9.654 9.652 15.626 22.987 15.626 37.717s-5.972 28.065-15.626 37.717l-193.067 193.067c-9.582 9.269-22.655 14.982-37.062 14.982-29.455 0-53.333-23.878-53.333-53.333 0-14.396 5.704-27.461 14.976-37.056l155.377-155.377-155.392-155.392z"  horiz-adv-x="1024" />

    
    <glyph glyph-name="sc-icon-filing" unicode="&#59100;" d="M161.536-9.131h713.131v749.696h-713.131v-749.696zM115.797 832h804.565c25.259 0 45.739-20.48 45.739-45.696v-841.173c0-25.216-20.48-45.696-45.739-45.696h-804.565c-25.216 0-45.696 20.48-45.696 45.696v841.216c0 25.216 20.48 45.696 45.696 45.696zM298.667 896v-219.435h73.131v219.435zM664.363 896v-219.435h73.173v219.435zM481.536 896v-219.435h73.131v219.435zM298.667 484.565h438.869v91.435h-438.869zM298.667 118.869h438.869v91.435h-438.869zM298.667 301.696h292.565v91.435h-292.565z"  horiz-adv-x="1024" />

    
    <glyph glyph-name="sc-icon-cancel-filing" unicode="&#59101;" d="M161.536-9.131h713.131v749.696h-713.131v-749.696zM115.797 832h804.565c25.259 0 45.739-20.48 45.739-45.696v-841.173c0-25.216-20.48-45.696-45.739-45.696h-804.565c-25.216 0-45.696 20.48-45.696 45.696v841.216c0 25.216 20.48 45.696 45.696 45.696zM298.667 896v-219.435h73.131v219.435zM664.363 896v-219.435h73.173v219.435zM481.536 896v-219.435h73.131v219.435zM330.624 433.707l310.315-310.315 64.64 64.64-310.315 310.315zM640.939 498.347l-310.315-310.315 64.64-64.64 310.315 310.315z"  horiz-adv-x="1024" />

    
    <glyph glyph-name="sc-icon-kezhuanzhaiguanli" unicode="&#59104;" d="M632.149-70.997c-15.644-15.019-46.99-7.509-46.99 15.076v154.681c0 15.019-15.701 30.094-31.346 30.094h-501.305c-15.644 7.509-23.495 15.019-23.495 30.094v10.809c0 15.076 15.644 30.151 31.289 30.151h900.836c15.644-7.566 31.289-30.151 15.644-52.736l-344.633-218.169zM381.497 874.724c15.644 15.076 46.99 7.509 46.99-15.019v-162.247c0-15.019 15.644-30.094 31.289-30.094h501.362c15.644 0 31.289-15.019 31.289-30.094v-3.3c0-15.019-15.644-30.094-31.289-30.094h-908.629c-23.495 7.566-31.289 37.66-15.644 52.679l344.633 218.169z"  horiz-adv-x="1024" />

    
    <glyph glyph-name="sc-icon-tongyecundan" unicode="&#59105;" d="M0 832c0 32 43.2 64 86.4 64h979.2c43.2 0 86.4-21.312 86.4-64 0-32-43.2-64-86.4-64h-993.6c-43.2 0-72 32-72 64zM295.936-87.296c-55.296-58.24-151.936-7.296-151.936 69.504v897.792h867.84v-885.696c0-87.68-96.192-128.192-151.936-69.44l-22.784 24-22.784-24c-30.464-32.064-96.768-32.064-127.232 0l-22.784 24-22.784-24c-30.464-32.064-96.768-32.064-127.232 0l-22.784 24-22.784-24c-30.464-32.064-96.768-32.064-123.328-3.648l-23.040 19.392-26.432-27.904zM744.704-9.024l5.376 5.632c-1.024-0.576-2.368-2.432-5.376-5.632zM756.736-9.024c-3.008 3.2-4.352 5.056-5.376 5.632l5.376-5.632zM571.904-9.024l5.376 5.632c-1.024-0.576-2.368-2.432-5.376-5.632zM583.936-9.024c-3.008 3.2-4.352 5.056-5.376 5.632l5.376-5.632zM399.104-9.024l5.376 5.632c-1.024-0.576-2.368-2.432-5.376-5.632zM411.136-9.024c-4.352 4.608-5.184 6.464-6.656 5.632l6.656-5.632zM837.12 88.32l78.72-82.944v778.624h-675.84v-790.72l75.072 79.040 34.56-29.12 54.848-46.592 87.040 91.712 86.4-91.008 86.4 91.008 86.4-91.008 86.4 91.008zM320 680.96c0 11.52 11.52 23.040 23.040 23.040h391.68c11.52 0 23.040-11.52 23.040-23.040s-11.52-23.040-23.040-23.040h-403.2c-11.52-0-11.52 11.52-11.52 23.040zM320 554.24c0 11.52 11.52 23.040 23.040 23.040h299.52c11.52 0 23.040-11.52 23.040-23.040s-11.52-23.040-23.040-23.040h-311.040c-11.52 0-11.52 11.52-11.52 23.040zM320 416c0 11.52 11.52 23.040 23.040 23.040h472.32c11.52 0 23.040-11.52 23.040-23.040s-11.52-23.040-23.040-23.040h-483.84c-11.52 0-11.52 11.52-11.52 23.040zM320 289.28c0 11.52 11.52 23.040 23.040 23.040h391.68c11.52 0 23.040-11.52 23.040-23.040s-11.52-23.040-23.040-23.040h-403.2c-11.52 0-11.52 11.52-11.52 23.040z"  horiz-adv-x="1152" />

    
    <glyph glyph-name="sc-icon-canshushezhiguanli" unicode="&#59106;" d="M78.791 817.209v-866.418c0-27.193 19.058-49.266 42.667-49.266 23.552 0 42.667 22.073 42.667 49.266v866.418c0 27.193-19.115 49.266-42.667 49.266-23.609 0-42.667-22.073-42.667-49.266zM0 541.525c0-65.257 52.901-118.158 118.158-118.158s118.158 52.901 118.158 118.158c0 65.257-52.901 118.158-118.158 118.158-65.257 0-118.158-52.901-118.158-118.158zM354.475 226.475c0-65.257 52.901-118.158 118.158-118.158s118.158 52.901 118.158 118.158c0 65.257-52.901 118.158-118.158 118.158-65.257 0-118.158-52.901-118.158-118.158zM748.316 541.525c0-65.257 52.901-118.158 118.158-118.158s118.158 52.901 118.158 118.158c0 0 0 0 0 0 0 65.257-52.901 118.158-118.158 118.158-65.257 0-118.158-52.901-118.158-118.158 0-0 0-0 0-0zM433.209 817.209v-866.418c0-27.193 19.115-49.266 42.667-49.266 23.609 0 42.667 22.073 42.667 49.266v866.418c0 27.193-19.058 49.266-42.667 49.266-23.552 0-42.667-22.073-42.667-49.266zM787.684 817.209v-866.418c0-27.193 19.115-49.266 42.667-49.266s42.667 22.073 42.667 49.266v866.418c0 27.193-19.115 49.266-42.667 49.266s-42.667-22.073-42.667-49.266z"  horiz-adv-x="1024" />

    
    <glyph glyph-name="sc-icon-xitongshezhi" unicode="&#59110;" d="M511.94 541.694c86.964-0.097 157.436-70.569 157.533-157.523-0.097-86.973-70.569-157.445-157.523-157.542-86.973 0.097-157.445 70.569-157.542 157.523 0.097 86.973 70.569 157.445 157.523 157.542M511.94 611.645c-0.004 0-0.010 0-0.015 0-125.636 0-227.484-101.848-227.484-227.484 0-125.636 101.848-227.484 227.484-227.484 0.005 0 0.011 0 0.016 0 125.629 0.009 227.468 101.853 227.468 227.484 0 125.631-101.839 227.475-227.468 227.484M1010.3 262.173c8.567 36.526 13.479 78.466 13.479 121.553 0 0.153-0 0.306-0 0.459 0 41.492-4.55 82.325-13.478 121.964-2.996 14.399-15.58 25.063-30.655 25.063-2.459 0-4.852-0.284-7.148-0.821-13.843-3.807-24-16.464-24-31.494 0-2.694 0.326-5.311 0.941-7.815 7.802-34.581 11.783-70.467 11.783-106.921 0-36.454-3.981-72.34-11.829-107.145-0.569-2.28-0.895-4.897-0.895-7.591 0-15.030 10.158-27.688 23.983-31.483 2.297-0.541 4.672-0.82 7.111-0.82 15.070 0 27.651 10.658 30.617 24.847zM973.334 237.15c1.99 0 3.64 0 5.118-0.114 0.239-0.006 0.521-0.010 0.803-0.010 17.353 0 31.464 13.878 31.84 31.14 0.038 0.617 0.060 1.296 0.060 1.981 0 16.975-13.186 30.87-29.875 32.001-2.384 0.114-5.063 0.176-7.757 0.176-0.067 0-0.133-0-0.2-0-17.348-0.379-31.275-14.54-31.275-31.954 0-0.222 0.002-0.444 0.007-0.666-0.001-17.938 13.99-32.554 31.278-32.554zM871.193 41.23c-12.349 19.52-19.678 43.281-19.678 68.754 0 0.121 0 0.242 0 0.363-0 70.046 54.596 126.803 121.818 126.803 17.289 0 31.279 14.616 31.279 32.587 0.004 0.188 0.006 0.41 0.006 0.633 0 17.414-13.927 31.575-31.25 31.954-101.834 0.001-184.411-85.988-184.411-191.996 0-37.592 10.464-73.762 29.8-104.643 9.441-15.071 28.834-19.336 43.279-9.554 8.667 6.114 14.258 16.085 14.258 27.362 0 6.575-1.901 12.705-5.182 17.873zM659.52-126.312c105.813 34.076 193.824 98.746 256.107 183.497-43.036-51.193-39.365-42.889-39.365-33.729 0 8.695-3.307 16.617-8.732 22.578-5.564 6.127-13.597 9.975-22.528 9.975-8.491 0-16.17-3.478-21.689-9.088-64.921-65.405-149.98-110.731-245.098-125.898 50.19 10.54 40.956-1.671 40.956-16.038 0-3.373 0.509-6.627 1.454-9.69 3.584-13.192 15.662-22.903 30.007-22.903 3.169 0 6.227 0.474 9.108 1.354zM401.724-108.966c19.905 44.132 62.558 72.852 110.216 72.852 47.658 0 90.311-28.72 110.273-72.852 4.809-11.060 15.64-18.653 28.244-18.653 4.87 0 9.474 1.133 13.565 3.151 10.587 5.544 17.809 16.63 17.809 29.403 0 5.024-1.118 9.788-3.118 14.055-30.056 66.506-94.661 110.070-166.774 110.070-72.112 0-136.661-43.563-166.859-110.33-1.895-4.046-3-8.785-3-13.782 0-12.783 7.234-23.876 17.831-29.409 4.094-2.024 8.699-3.157 13.568-3.157 12.604 0 23.435 7.593 28.168 18.455zM158.601-1.48c73.918-73.823 170.508-124.96 278.427-142.066-56.118 12.116-38.659 21.841-33.654 39.073 0.88 2.825 1.387 6.073 1.387 9.44 0 14.387-9.258 26.611-22.142 31.040-92.696 29.889-169.648 86.289-224.275 160.193 37.966-44.928 30.331-41.493 21.893-41.493-8.988 0-17.065-3.897-22.635-10.093-5.393-5.953-8.678-13.852-8.678-22.519 0-9.191 3.695-17.518 9.681-23.578zM52.65 237.207c67.278 0 121.818-56.757 121.818-126.822 0-25.308-7.109-49.478-20.303-70.179-3.303-5.090-5.267-11.315-5.267-17.998 0-11.152 5.468-21.027 13.87-27.090 4.953-3.466 10.981-5.499 17.483-5.499 10.942 0 20.54 5.754 25.932 14.402 19.98 31.408 30.842 68.090 30.842 106.364 0 106.007-82.52 191.996-184.376 191.996-17.359-0.379-31.285-14.54-31.285-31.954 0-0.222 0.002-0.444 0.007-0.666-0.001-17.938 14.047-32.554 31.278-32.554zM45.825 237.036c2.047 0.114 4.379 0.171 6.825 0.171 17.289 0 31.279 14.616 31.279 32.587 0.004 0.188 0.006 0.41 0.006 0.633 0 17.414-13.927 31.575-31.25 31.954-3.618 0.001-7.030-0.113-10.272-0.284-16.648-1.325-29.656-15.162-29.656-32.037 0-0.814 0.030-1.621 0.090-2.42 0.58-16.99 14.581-30.627 31.767-30.627 0.426 0 0.85 0.008 1.273 0.025zM13.58 506.263c-8.631-36.69-13.579-78.818-13.579-122.102s4.948-85.411 14.31-125.849c3.194-13.769 20.027-24.632 36.804-20.537 14.054 3.848 24.212 16.506 24.212 31.536 0 2.694-0.326 5.311-0.941 7.815-7.538 32.006-11.886 69.013-11.886 107.035 0 38.022 4.348 75.028 12.575 110.549-0.073-1.011 0.253 1.607 0.253 4.3 0 15.030-10.158 27.688-23.983 31.483-2.297 0.541-4.672 0.82-7.111 0.82-15.070 0-27.651-10.658-30.617-24.847zM52.593 531.173c-2.445 0-4.777 0-6.825 0.171-0.361 0.015-0.786 0.023-1.212 0.023-17.186 0-31.186-13.637-31.772-30.68-0.055-0.746-0.085-1.553-0.085-2.367 0-16.875 13.008-30.711 29.544-32.029 3.354-0.178 6.767-0.292 10.349-0.292 17.289 0 31.279 14.616 31.279 32.587 0.004 0.188 0.006 0.41 0.006 0.633 0 17.414-13.927 31.575-31.25 31.954zM154.222 728.174c13.194-20.644 20.303-44.871 20.303-70.236 0-70.008-54.539-126.822-121.818-126.822-17.358-0.38-31.284-14.541-31.284-31.954 0-0.202 0.002-0.405 0.006-0.606-0-17.941 14.047-32.557 31.279-32.557 101.799 0 184.376 85.932 184.376 191.939 0 38.331-10.805 75.070-30.767 106.292-5.468 8.776-15.066 14.531-26.007 14.531-6.503 0-12.531-2.032-17.484-5.497-8.402-6.065-13.87-15.94-13.87-27.092 0-6.683 1.964-12.908 5.346-18.129zM364.417 894.635c-105.37-33.94-193.070-98.169-255.345-182.347 43.547 51.402 39.852 43.075 39.852 33.884 0-8.666 3.286-16.565 8.679-22.519 11.918-12.995 31.709-13.45 44.22-1.052 64.853 64.87 149.628 109.821 244.361 124.888-50.681-10.686-41.423 1.538-41.423 15.924 0 3.367-0.507 6.615-1.449 9.673-3.584 13.192-15.662 22.903-30.008 22.903-3.169 0-6.227-0.474-9.108-1.354zM622.213 877.289c-19.905-44.132-62.558-72.852-110.216-72.852-47.715 0-90.368 28.72-110.33 72.852-4.814 11.047-15.639 18.63-28.235 18.63-4.851 0-9.44-1.125-13.519-3.128-10.611-5.537-17.855-16.636-17.855-29.427 0-5.015 1.114-9.771 3.107-14.032 30.056-66.506 94.661-110.069 166.831-110.069 72.055 0 136.661 43.563 166.802 110.33 1.901 4.052 3.011 8.799 3.011 13.806 0 12.765-7.213 23.844-17.786 29.386-4.093 2.024-8.698 3.157-13.567 3.157-12.604 0-23.435-7.593-28.168-18.455zM866.644 768.382c-74.045 74.525-171.028 126.179-279.47 143.482 69.686-16.406 66.627-15.932 63.458-15.932-14.346 0-26.423-9.71-30.019-22.917-0.934-3.048-1.443-6.303-1.443-9.676 0-14.368 9.234-26.578 22.090-31.022 93.172-30.058 170.471-86.902 225.169-161.377-30.667 38.011-10.876 38.409 1.124 51.376 5.401 5.934 8.708 13.856 8.708 22.551 0 9.161-3.671 17.464-9.623 23.519zM973.334 531.173c-67.278 0-121.818 56.757-121.818 126.822 0 24.909 6.938 48.682 19.677 69.098 3.212 5.038 5.119 11.178 5.119 17.765 0 11.26-5.575 21.218-14.114 27.264-4.909 3.37-10.851 5.34-17.254 5.34-11.063 0-20.751-5.882-26.11-14.689-18.778-29.721-29.877-65.73-29.877-104.332 0-0.157 0-0.314 0.001-0.47-0-106.040 82.577-191.972 184.376-191.972 17.289 0 31.279 14.616 31.279 32.587 0.004 0.188 0.006 0.41 0.006 0.633 0 17.414-13.927 31.575-31.25 31.954zM978.452 531.287c-1.516-0.072-3.294-0.114-5.080-0.114-0.013 0-0.027 0-0.040 0-17.356-0.379-31.283-14.54-31.283-31.954 0-0.222 0.002-0.444 0.007-0.666-0.001-17.938 13.99-32.554 31.278-32.554 2.844 0 5.346 0.057 7.848 0.171 16.787 1.136 29.973 15.031 29.973 32.006 0 0.685-0.021 1.364-0.064 2.038-0.372 17.205-14.483 31.083-31.836 31.083-0.282 0-0.564-0.004-0.845-0.011z"  horiz-adv-x="1024" />

    
    <glyph glyph-name="sc-icon-message" unicode="&#59111;" d="M606.919 804.978c0 50.176-42.439 91.022-94.891 91.022-52.338 0-94.948-40.732-94.948-91.022 0-5.12 0.455-10.126 1.308-15.019-131.186-43.804-238.763-178.404-238.763-337.522v-125.326s0-180.452-46.251-182.044c-27.591 0-48.697-20.366-48.697-45.511 0-25.316 21.276-45.511 47.445-45.511h759.694c26.396 0 47.502 20.366 47.502 45.511 0 25.316-21.276 45.511-47.502 45.511-47.445 0-47.445 180.793-47.445 180.793v126.578c0 159.346-100.58 293.945-238.706 337.636 0.853 4.836 1.308 9.842 1.308 14.905zM654.421 8.59c-0.114-75.435-63.317-136.59-142.45-136.59-78.507 0-142.222 60.871-142.393 136.59h284.843z"  horiz-adv-x="1024" />

    
    <glyph glyph-name="sc-icon-yaliceshi" unicode="&#59112;" d="M104.391-25.031v714.524c-0 0-0 0-0 0 0 8.777 7.099 15.896 15.869 15.929l172.661 0c-8.078-9.728-14.791-20.366-19.57-31.744h307.826c-9.107 20.852-22.887 38.197-40.085 51.279l193.173-19.535c8.773-0.032 15.872-7.152 15.872-15.929 0-0-0-0-0-0l0-241.323h75.947v241.323c0 50.802-41.188 92.16-91.819 92.16h-221.525c4.047 9.407 6.4 20.358 6.4 31.858 0 45.507-36.851 82.408-82.339 82.489-45.528-0.049-82.411-36.961-82.411-82.489 0-11.5 2.353-22.45 6.605-32.396l-240.731 0.538c-50.631 0-91.819-41.358-91.819-92.16v-714.524c0-50.859 41.188-92.16 91.819-92.16h424.107v76.231h-424.107c-8.773 0.032-15.872 7.152-15.872 15.929 0 0 0 0 0 0zM405.106 813.34c0.032 17.476 14.207 31.63 31.687 31.63 17.5 0 31.687-14.187 31.687-31.687 0-17.48-14.154-31.655-31.627-31.687l-0.174-0c-17.458 0.097-31.573 14.272-31.573 31.744 0 0 0 0 0 0zM952.604 440.889c-182.044-111.844-314.027-252.928-373.362-323.698l-145.294 114.119-64.171-51.883 251.108-255.943c43.179 110.933 180.053 327.737 347.136 481.849l-15.36 35.556z"  horiz-adv-x="1024" />

    
    <glyph glyph-name="sc-icon-zhaiquanhuigou" unicode="&#59113;" d="M235.691 716.8h390.713c164.409 0 298.041-133.916 298.041-298.667 0-23.564 19.103-42.667 42.667-42.667 23.564 0 42.667 19.103 42.667 42.667 0 211.797-171.804 384-383.431 384h-390.599c-23.561-0.004-42.66-19.105-42.66-42.667 0-23.562 19.099-42.663 42.66-42.667zM751.616 119.467h-353.849c-164.753 0.259-298.212 133.877-298.212 298.666 0 0 0 0 0 0-0 23.564-19.103 42.667-42.667 42.667-23.564 0-42.667-19.103-42.667-42.667 0-211.797 171.804-384 383.488-384h353.849c23.564 0 42.667 19.103 42.667 42.667s-19.103 42.667-42.667 42.667zM150.642 718.791c-33.735 16.839-34.247 43.861 0 60.985l219.307 109.682c33.678 16.782 60.985 0.171 60.985-37.831v-204.8c0-37.717-26.738-54.898-60.985-37.774l-219.307 109.739zM837.803 36.124c33.735 16.839 34.247 43.861 0 60.985l-219.25 109.682c-33.735 16.839-61.042 0.171-61.042-37.774v-204.8c0-37.717 26.738-54.898 61.042-37.774l219.25 109.682z"  horiz-adv-x="1024" />

    
    <glyph glyph-name="sc-icon-zhifuguanli" unicode="&#59114;" d="M972.077 416.949h-65.837v147.576c0 50.598-38.551 93.244-86.98 106.496 0.337 1.746 0.53 3.753 0.53 5.806 0 4.038-0.747 7.902-2.11 11.46l-69.799 186.63c-4.729 12.373-16.503 21.001-30.292 21.001-4.048 0-7.922-0.743-11.493-2.101l-560.327-208.641c-7.11-2.663-12.876-7.544-16.592-13.786l-23.163 3.908c-61.801 0-106.014-49.754-106.014-110.712v-567.416c0-62.404 44.213-113.122 106.074-113.122h681.864c61.922 0 118.302 50.718 118.302 113.122v129.084h65.837c0.036-0 0.078-0 0.12-0 61.856 0 112.003 50.127 112.038 111.974l0 66.864c-0.069 61.825-50.203 111.917-112.038 111.917-0.042 0-0.085-0-0.127-0zM698.609 822.152l54.814-146.854h-449.114l394.3 146.854zM841.487-2.831c0-26.323-27.768-48.55-53.489-48.55h-681.864c-25.781 0-41.382 22.287-41.382 48.55v567.416c0 25.841 14.758 46.080 41.321 46.080h681.864c26.624 0 53.609-20.239 53.609-46.080v-147.637h-98.244c-0.036 0-0.078 0-0.12 0-61.856 0-112.003-50.127-112.038-111.974l-0-66.804c0.069-61.825 50.203-111.917 112.038-111.917 0.042 0 0.085 0 0.127 0l98.177-0v-129.084zM1019.482 238.17c-0.034-26.155-21.245-47.345-47.405-47.345-0 0-0 0-0 0l-228.774-0c-0.018-0-0.039-0-0.060-0-26.16 0-47.371 21.19-47.405 47.342l-0 66.925c0 26.082 21.263 47.285 47.465 47.285h228.774c26.202 0 47.405-21.203 47.405-47.345v-66.801z"  horiz-adv-x="1084" />

    
    <glyph glyph-name="sc-icon-zuheyulan" unicode="&#59115;" d="M341.333 258.276v253.554c0 23.495 19.342 42.837 42.268 42.837h251.62v85.333h-251.62c-70.536-0.387-127.571-57.642-127.602-128.225l-0-253.443h85.333zM810.667 554.667h85.333c23.324 0 42.667-19.342 42.667-42.439v-512.455c0-23.211-19.342-42.439-42.439-42.439h-512.455c-23.321 0.095-42.215 18.91-42.439 42.191l-0 80.973h-85.333v-80.953c0.226-70.43 57.325-127.448 127.764-127.545l512.464-0c70.489 0.194 127.579 57.284 127.772 127.754l0 512.473c-0.258 70.543-57.44 127.644-127.988 127.772l-85.345 0v-85.333zM0 768.228v-512.455c0.194-70.489 57.284-127.579 127.754-127.772l512.473-0c70.489 0.194 127.579 57.284 127.772 127.754l0 512.473c-0.194 70.489-57.284 127.579-127.754 127.772l-512.473 0c-70.489-0.194-127.579-57.284-127.772-127.754zM85.333 768.228c0 23.211 19.342 42.439 42.439 42.439h512.455c23.211 0 42.439-19.342 42.439-42.439v-512.455c0-23.211-19.342-42.439-42.439-42.439h-512.455c-23.362 0.192-42.248 19.079-42.439 42.423l-0 512.472z"  horiz-adv-x="1024" />

    
    <glyph glyph-name="sc-icon-quanshangduizhang" unicode="&#59117;" d="M927.864 218.473v375.025c0 23.13 18.673 41.864 41.683 41.864s41.683-18.673 41.683-41.864v-249.856h62.584v249.976c0 57.585-46.682 104.388-104.207 104.388-57.585 0-104.328-46.803-104.328-104.448v-375.025h62.584zM1011.23 353.822v-270.999c-1.328-50.797-42.822-91.469-93.816-91.469s-92.489 40.672-93.814 91.347l-0.003 271.182h-62.524v-271.059c-0.038-1.293-0.060-2.814-0.060-4.341 0-86.394 70.037-156.431 156.431-156.431 86.394 0 156.431 70.037 156.431 156.431 0 1.526-0.022 3.048-0.065 4.563l0.005 270.836h-62.584zM761.073 822.995v-481.521h62.524v512.843c-0.034 17.273-14.045 31.262-31.322 31.262-0 0-0-0-0-0l-750.472 0c-17.299 0-31.322-14.023-31.322-31.322v-729.751c-0-0.018-0-0.039-0-0.060 0-109.349 88.645-197.993 197.993-197.993 0.042 0 0.085 0 0.127 0l708.782-0v62.524h-708.969c-0.036-0-0.078-0-0.121-0-74.784 0-135.409 60.625-135.409 135.409 0 0.042 0 0.085 0 0.127l-0 698.482h688.128zM187.633 593.619h458.752v62.645h-458.752zM187.633 468.57h458.752v62.524h-458.752zM187.633 322.56h458.752v62.645h-458.752zM187.633 187.031h333.643v62.645h-333.643z"  horiz-adv-x="1084" />

    
    <glyph glyph-name="sc-icon-demoguanli" unicode="&#59118;" d="M338.282 896h-194.271c-78.402 0-144.012-65.041-144.012-143.386v-194.327c0-78.345 65.61-140.714 144.012-140.714h334.302v335.041c0.057 78.345-61.63 143.386-140.032 143.386zM408.213 487.787h-264.258c-39.229 0-72.66 31.383-72.66 70.556v194.271c0 39.229 33.487 72.034 72.66 72.034h194.327c39.173 0 69.931-32.862 69.931-72.034v-264.827zM883.059 896h-194.271c-78.345 0-143.841-65.041-143.841-143.386v-334.985h338.112c0.238-0.001 0.519-0.002 0.801-0.002 77.055 0 139.52 62.465 139.52 139.52 0 0.421-0.002 0.841-0.006 1.26l0 194.206c0 78.345-61.914 143.386-140.259 143.386zM951.966 558.343c0-39.173-29.735-70.499-68.907-70.499h-267.897v264.77c0 39.229 34.454 72.034 73.626 72.034h194.271c39.173 0 68.907-32.862 68.907-72.034v-194.327zM0 207.781v-194.271c0-78.345 65.61-140.885 144.012-140.885h194.271c78.345 0 140.089 62.54 140.089 140.885v337.486h-334.359c-78.402 0-144.012-64.814-144.012-143.272zM408.213 13.51c0-39.229-30.758-69.533-69.931-69.533h-194.271c-39.229 0-72.66 30.36-72.66 69.533v194.271c0 39.173 33.487 73.001 72.66 73.001h264.144v-267.214zM883.115 350.996h-338.112v-337.486c0-78.345 65.496-140.885 143.841-140.885h194.271c78.288-0 140.259 62.54 140.259 140.885v194.271c0 78.345-61.914 143.216-140.259 143.216zM952.023 13.51c0-39.229-29.735-69.533-68.907-69.533h-194.271c-39.229 0-73.626 30.36-73.626 69.533v267.328h267.897c39.173 0 68.907-33.828 68.907-73.001v-194.271z"  horiz-adv-x="1024" />

    
    <glyph glyph-name="sc-icon-last-page" unicode="&#59119;" d="M922.112 795.392l-98.752 98.752-460.8-460.8c-12.634-12.626-20.448-30.072-20.448-49.344s7.815-36.718 20.448-49.344l460.8-460.8 98.752 98.752-411.392 411.392 411.392 411.392zM64 896v-1024h139.648v1024z"  horiz-adv-x="1024" />

    
    <glyph glyph-name="sc-icon-next-page" unicode="&#59120;" d="M101.888 795.392l98.752 98.752 460.8-460.8c12.634-12.626 20.448-30.072 20.448-49.344s-7.815-36.718-20.448-49.344l-460.8-460.8-98.752 98.752 411.392 411.392-411.392 411.392zM960 896v-1024h-139.648v1024z"  horiz-adv-x="1024" />

    
    <glyph glyph-name="sc-icon-close" unicode="&#59121;" d="M598.938 384l347.853 347.955c10.871 11.105 17.579 26.323 17.579 43.108 0 16.939-6.832 32.282-17.89 43.424-11.066 11.198-26.429 18.135-43.413 18.135-16.831 0-32.071-6.813-43.112-17.833l-347.954-347.749-347.955 347.75c-11.105 10.871-26.323 17.579-43.108 17.579-16.939 0-32.282-6.832-43.424-17.89-11.198-11.066-18.135-26.429-18.135-43.413 0-16.831 6.813-32.071 17.833-43.112l347.749-347.954-347.75-347.955c-10.871-11.105-17.579-26.323-17.579-43.108 0-16.939 6.832-32.282 17.89-43.424 11.066-11.198 26.429-18.135 43.413-18.135 16.831 0 32.071 6.813 43.112 17.833l347.954 347.749 347.955-347.853c23.245-23.347 62.464-23.654 86.528 0.307 11.201 11.070 18.139 26.433 18.139 43.417 0 16.831-6.813 32.071-17.833 43.112l-347.749 348.057z"  horiz-adv-x="1024" />

    
    <glyph glyph-name="sc-icon-cunkuanguanli" unicode="&#59122;" d="M319.664-69.509c7.676-15.763 23.575-26.433 41.967-26.433 7.865 0 15.271 1.951 21.767 5.394l341.618 173.212-435.574-91.411c17.802-36.457 30.221-60.763 30.221-60.763zM123.357 111.287c6.183-34.113 10.073-57.671 10.073-57.671 4.031-22.606 23.538-39.545 47.002-39.545 2.962 0 5.859 0.27 8.671 0.787l533.941 96.429h-599.633zM990.988 368.143v203.929h-958.987v-371.401c0-27.45 21.321-49.783 47.971-49.783h495.964c-0.374 5.863 344.962 0 350.719 0.374 49.196 1.599 64.334 36.884 63.961 64.709-1.173 54.1 1.919 75.314 0.374 152.174zM896.112 419.47l-28.25-121.525c-1.745-7.997-8.338-14.047-16.483-14.953l-60.59 0.029c-8.102 0-13.911 6.663-11.566 15.67l3.465 16.097h1.919l1.599 5.117h-1.973l2.665 11.726h11.246c1.173 0 1.599 0.427 2.719 1.226 1.173 0.374 1.599 1.173 1.972 1.546 1.27 1.919 2.123 4.222 2.377 6.701l3.007 10.142h-10.82s-3.465-0.374-4.637-1.173c-0.374 0-0.374-0.374-1.173-0.374l2.665 10.98h1.226l0.374 0.374c0.374 3.198 0.374 4.317 1.546 8.634l0.374 1.972c1.173 3.518 1.599 5.863 1.173 7.836l9.7 41.574c1.993 8.14 8.548 14.332 16.74 15.765l-3.202-0.095c-8.242-1.695-14.638-8.051-16.367-16.135l-8.418-38.336c-0.374 0.374-1.599 0.374-1.919 0.374-2.055-0.113-3.967-0.622-5.694-1.454 0.257-0.144-0.542-0.144-1.29-0.892l0.374 1.973-0.374 0.374c-3.518-1.173-4.637-1.173-8.155-1.599h-0.374c-0.374-3.517-1.173-6.236-1.919-12.526-0.427-2.719-1.173-5.117-1.599-7.035v-0.427h7.781l0.374 0.427c0.374 1.919 0.374 2.719 1.599 6.663 0.374 1.919 1.494 6.236 1.494 7.836 1.173 0.374 1.599 0.374 1.972 0.374 1.546 0 1.546-1.599 1.546-1.973-0.106-2.752-0.767-5.326-1.871-7.646l-0.099-1.361c-0.374-1.599-0.374-2.719-1.119-4.263h4.265l-1.973-9.434h-6.183l-9.274-31.767c-0.427-1.173-0.427-1.972-0.427-2.771 0-0.372 0.427-1.173 1.173-1.599 0.8-0.374 1.599-0.374 1.919-0.374h3.891l-3.465-16.043c-1.973-8.261 3.092-15.67 11.619-15.67h-121.259c-8.102 0-13.913 6.663-11.619 15.67l28.25 121.525c1.973 8.261 10.127 15.724 18.975 15.724h181.596c7.356-1.173 12.793-7.836 10.447-16.897zM781.676 321.878l4.798 9.753-4.21-11.726c-0.533 0-0.533 0.374-0.533 0.374-0.639 0-0.639 0.374 0 1.599zM797.399 337.922l-0.374-2.985h-8.155l0.374 2.985h8.155zM790.044 340l1.173 5.383h9.277l-1.173-4.21h-6.183c-1.546-0.586-2.665-1.173-3.092-1.173zM990.988 813.631c0 27.45-21.321 49.783-48.023 49.783h-862.567c-26.704 0-47.971-22.387-47.971-49.783v-111.772h958.561v111.772zM810.192 367.343s1.119 4.69 1.119 5.117l0.427 0.372h0.372c5.010 0 10.82 0 14.711 3.143 3.092 1.973 5.010 5.863 6.183 9.381 0 1.173 0.374 1.972 0.374 3.198 0.001 0.053 0.002 0.117 0.002 0.181 0 1.507-0.417 2.917-1.142 4.119-1.952 3.162-6.589 3.162-11.6 3.162h-12.793c0-0.427-0.372-1.599-0.372-1.599l-2.719-10.98s-5.81-23.133-5.81-24.358h9.277c1.173 1.973 1.973 8.261 1.973 8.261zM813.282 379.070l2.665 11.033v1.173h1.173l5.063-0.427c1.919-1.173 3.092-3.092 1.919-5.863-0.351-2.695-2.083-4.918-4.457-5.952-1.354-1.085-3.273-1.085-5.618-1.085h-1.546l0.8 1.173zM828.74 321.079h-1.919l6.929 24.305h2.771l1.119 2.719v-2.719c0-1.599 1.173-3.143 4.637-3.143h4.265l1.599 4.69h-1.599c-1.119 0-1.546 0-1.119 0.427v3.143h-7.783c-2.665 0-9.648 0-11.193-0.427-1.973-0.374-3.518-1.972-3.518-1.972l0.427 2.771h-7.356l-1.599-5.117-7.729-24.678h-1.546l-1.546-4.69h14.338l-0.372-1.599h6.929l0.427 1.599h1.919l1.919 4.69zM820.212 320.972h-5.756l1.546 5.97h5.81l-1.599-5.97zM822.93 331.632s-1.546 0-3.092-0.374c-1.173-0.374-3.092-1.599-3.092-1.599l1.919 6.717h5.863l-1.599-4.745zM822.93 340.266l-3.092-1.173 1.972 6.288h5.756l-1.546-4.69c-0.374 0-1.919 0-3.092-0.427zM797.026 328.541c0-0.427 0-0.427-0.427-0.427h-2.719v2.826h-6.556l-0.374-12.951c0-1.173 0-1.599 0.374-1.972s2.665-0.374 5.81-0.374h4.265l1.546 5.063h-4.637s-0.374 0-0.374 0.427c0 0-0.427 0-0.427 1.173v3.518h3.517c1.919 0 3.092 0.372 3.465 1.173s1.173 1.599 1.173 1.972l0.374 3.143h-5.437l0.427-3.517zM828.74 369.689c-0.372-2.719-1.546-8.209 3.092-9.807 1.599-0.374 3.092-1.173 4.265-0.374 1.599 0 2.719 1.173 4.265 1.972 0-0.427 0-1.173-0.372-1.173v-0.427h8.528c1.506 9.701 4.018 18.409 7.483 26.617-4.391-10.946-3.219-8.174-2.846-5.456v0.8c-3.465-0.372-4.637-1.173-8.155-1.599h-0.372v-1.119c-0.374 1.173-1.546 1.599-2.665 1.919-0.403 0.059-0.868 0.093-1.342 0.093-2.845 0-5.405-1.225-7.179-3.178-2.71-2.082-4.502-5.227-4.747-8.796zM836.521 369.689c1.119 3.518 1.546 6.288 4.265 6.288 1.492 0 2.665-1.599 1.919-3.518 0-0.427-0.427-1.173-0.427-1.972 0-1.173-0.372-1.973-0.372-3.143-0.374-0.372-0.374-1.599-1.173-1.973-0.374-1.173-1.919-1.599-3.092-1.599 0 0-1.546 0-1.546 2.025 0.427 1.546 0.427 2.346 0.427 3.891zM761.367 359.509c3.518 0 6.983 1.173 9.7 3.517 1.828 2.158 3.001 4.922 3.178 7.954 1.087 3.826-0.086 5.797-1.259 7.343-1.546 1.972-4.637 2.719-6.929 2.719-1.599 0-5.863 0-9.326-3.092-2.665-1.973-3.465-5.117-4.265-7.888-0.374-3.092-1.546-8.209 3.092-9.753 1.972-0.8 4.265-0.8 5.863-0.8zM760.621 369.689c1.173 3.518 1.546 6.663 4.265 6.663 1.919 0 1.919-1.972 1.173-5.863 0-0.427-1.173-3.518-1.599-5.117-0.289-0.869-1.049-1.504-1.972-1.606s-1.494 0.007-1.494 2.032c-0.746 1.919-0.374 3.092-0.374 3.891zM757.529 335.204h4.265l-1.173-4.317h-4.637l-1.599-4.745h4.69l-2.719-8.209c-0.374-1.173 0-1.599 0.374-1.972 0.427-0.372 0.427-1.173 1.599-1.173 0.372 0 1.494-0.374 1.919-0.374h8.528l1.494 5.063-4.265-0.372c-0.374 0-3.092 0-2.665 1.173l1.919 6.288h7.729l1.599 4.69h-7.781l1.173 4.317h7.729l1.599 4.69h-19.028l-0.746-5.063zM772.987 350.873h-7.729l-1.919-3.518c-0.427-1.173-1.173-1.599-1.173-1.599-0.374 0-1.173-0.374-1.599-0.374h-1.066l-1.599-4.69h3.465c1.599 0 3.145 0.374 3.518 1.173 0.374 0.372 1.173 0 1.546 0.372l1.173 1.173h10.82l1.599 4.69h-7.783l0.746 2.771zM750.921 377.151c-1.919-0.374-3.092-0.374-4.265-0.374-1.119 0-2.665-0.427-4.265-0.427 0-1.599-0.374-2.719-0.374-4.263 0-1.599-0.374-3.198-1.173-5.117-0.374-1.599-0.374-2.771-1.119-3.198 0-0.374-0.427-1.119-1.173-3.092h8.528c0.372 1.599 0.372 1.972 0.372 2.719 0 1.173 0.374 1.973 1.173 5.117 0.374 1.599 0.374 3.143 1.173 4.317 0.746 1.173 0.746 2.719 1.119 4.263zM713.397 375.552s4.637 18.868 5.010 20.787h-8.528c0-1.173-4.637-20.787-4.637-20.787-1.173-4.265-1.546-6.663-3.465-8.582-1.165-0.999-2.69-1.605-4.357-1.605-0.098 0-0.197 0.002-0.294 0.007-2.704-0.001-4.25 1.598-4.623 4.317v1.226l1.119 5.117s4.637 17.589 5.063 20.361h-10.127l-0.32-1.173-4.69-20.361-0.374-1.599-0.374-5.863c0-1.599 0.374-3.143 1.173-4.317 1.919-3.517 7.729-4.263 11.193-4.263 4.265 0 8.155 1.119 10.873 2.665 4.637 2.771 6.183 7.089 6.929 11.033l0.427 3.092zM750.921 383.387c-1.546 1.226-4.637 0.427-6.556-0.372-1.919-1.599-1.919-3.198-0.374-4.371 1.546-1.226 4.637-0.427 6.556 0.374 1.919 1.226 1.919 3.198 0.374 4.371zM733.491 381.842l8.528 38.43c1.974 8.161 8.532 14.375 16.733 15.817l-3.569-0.095c-8.254-1.703-14.653-8.080-16.365-16.186l-9.167-38.341c-0.605-0.117-1.14-0.359-1.597-0.702 0.052-0.098-0.748-0.098-1.494-0.898l0.374 1.973-0.374 0.427c-3.518-1.226-4.637-1.226-8.155-1.599h-0.374c-0.374-3.518-1.173-6.288-1.919-12.526-0.427-2.771-1.173-5.117-1.599-7.089v-0.374h7.781l0.374 0.374c0.374 1.973 0.374 2.771 1.599 6.663 0.32 1.973 1.066 6.288 1.494 7.836 1.173 0.427 1.599 0.427 1.972 0.427h0.374l-17.802-77.285c-1.973-8.209 3.092-15.67 11.619-15.67h3.092c-8.155 0-13.965 6.663-11.619 15.67l14.338 61.615h6.183l0.374 0.374c0.374 3.145 0.374 4.263 1.546 8.634l0.374 1.973c1.173 4.265 1.599 6.236 0.427 8.209 0.746 1.599-1.599 2.346-3.145 2.346zM833.377 336.374h8.155l-1.173-3.517h-8.102l-1.173-4.317h6.929l-5.756-7.888c-0.427-0.374-0.427-1.173-1.173-1.173-0.8 0-1.173-0.374-1.599-0.374h-1.919l-1.546-4.69h5.063c0.089-0.005 0.193-0.007 0.297-0.007 2.336 0 4.38 1.252 5.495 3.123l3.481 5.093 1.173-5.063c0-1.173 1.173-1.599 1.546-1.599s1.173-0.374 1.919-1.173h4.637l1.599 5.117h-0.427c-0.374 0-1.546 0-1.546 0.374 0 0 0 0.372-0.374 1.173l-1.173 5.117h-3.465l1.546 1.599h8.102l1.173 4.265h-7.729l1.173 3.518h7.729l1.546 4.743h-22.439l-1.972-4.317zM785.779 336.374v0zM870.154 380.297c-0.372 0-0.372-0.427 0 0-3.092-6.288-2.665-5.117-5.010-9.807v0.372l-0.372 10.179-0.374 0.427c-4.265-0.427-4.265-1.173-7.781-1.599h-0.374v-0.374c0.374-2.719 0.374-1.599 1.173-5.863 0-1.599 0.374-3.571 0.374-5.117 0.372-3.143 0.372-4.69 1.173-8.634-2.719-4.263-3.092-5.863-5.063-9.381l-1.546-2.771c0-0.374-0.374-0.374-0.374-0.374h-2.292l-1.599-4.745h4.69c2.665 0 4.637 1.599 5.81 3.198l20.521 35.658-0.427 0.374c-4.265-1.173-5.383-1.173-8.528-1.599z"  horiz-adv-x="1024" />

    
    <glyph glyph-name="sc-icon-fold" unicode="&#59123;" d="M0 823.296c0 40.155 32.549 72.704 73.143 72.704h1024c40.375 0 73.143-32.183 73.143-72.704v-49.883c0-40.155-32.549-72.704-73.143-72.704h-1024c-40.375 0-73.143 32.183-73.143 72.704v49.883zM0 433.298c0.083 40.131 32.634 72.632 72.777 72.632 0.129 0 0.257-0 0.386-0.001l1023.98 0c40.375 0 73.143-32.183 73.143-72.631v-49.81c-0.083-40.131-32.634-72.632-72.777-72.632-0.129 0-0.257 0-0.386 0.001l-1023.98-0c-40.375 0-73.143 32.183-73.143 72.631v49.737zM0 43.154c0.083 40.131 32.634 72.632 72.777 72.632 0.129 0 0.257-0 0.386-0.001l1023.98 0c40.375 0 73.143-32.183 73.143-72.631v-49.737c-0.083-40.131-32.634-72.632-72.777-72.632-0.129 0-0.257 0-0.386 0.001l-1023.98-0c-40.375 0-73.143 32.183-73.143 72.631v49.737z"  horiz-adv-x="1170" />

    
    <glyph glyph-name="sc-icon-expansion1" unicode="&#59124;" d="M32 795.9072975A67.8856171875 67.8856171875 0 0 0 100.0913309375 863.9986284375h46.628505a67.8856171875 67.8856171875 0 0 0 68.1599025-68.0913309375v-46.628505a67.8856171875 67.8856171875 0 0 0-68.0913309375-68.1599025H100.0913309375A67.8856171875 67.8856171875 0 0 0 32 749.2102209375V795.9072975z m0-365.69090624999995a67.8856171875 67.8856171875 0 0 0 68.0913309375 68.0913309375h46.628505a67.8856171875 67.8856171875 0 0 0 68.1599025-68.0913309375v-46.6970765625A67.8856171875 67.8856171875 0 0 0 146.7884075 315.42798375000007H100.0913309375A67.8856171875 67.8856171875 0 0 0 32 383.5193146875v46.628505z m0-365.7594778125a67.8856171875 67.8856171875 0 0 0 68.0913309375 68.091331875h46.628505a67.8856171875 67.8856171875 0 0 0 68.1599025-68.091331875v-46.628505a67.8856171875 67.8856171875 0 0 0-68.0913309375-68.0913309375H100.0913309375A67.8856171875 67.8856171875 0 0 0 32 17.828408437500002v46.628505zM306.2853228125 795.9072975C306.2853228125 833.48438625 337.553849375 863.9986284375 374.9937959375 863.9986284375h685.4390203125A68.2284740625 68.2284740625 0 0 0 1129.141289375 795.9072975v-46.628505c0-37.714231874999996-31.268526562500004-68.1599025-68.70847312500001-68.1599025H374.9937959375A68.2284740625 68.2284740625 0 0 0 306.2853228125 749.2102209375V795.9072975z m0-365.69090624999995c0 37.57708875 31.268526562500004 68.0913309375 68.70847312500001 68.0913309375h685.4390203125A68.2284740625 68.2284740625 0 0 0 1129.141289375 430.21639125v-46.6970765625c0-37.57708875-31.268526562500004-68.0913309375-68.70847312500001-68.0913309375H374.9937959375A68.2284740625 68.2284740625 0 0 0 306.2853228125 383.5193146875v46.628505z m0-365.7594778125c0 37.6456603125 31.268526562500004 68.0913309375 68.70847312500001 68.091331875h685.4390203125A68.2284740625 68.2284740625 0 0 0 1129.141289375 64.45691343750002v-46.628505c0-37.6456603125-31.268526562500004-68.0913309375-68.70847312500001-68.0913309375H374.9937959375A68.2284740625 68.2284740625 0 0 0 306.2853228125 17.828408437500002v46.628505z"  horiz-adv-x="1170" />

    
    <glyph glyph-name="sc-icon-back-top" unicode="&#59126;" d="M1478.068865-105.33576500000004a85.328996 85.328996 0 0 1 115.706118 125.433623l-779.480376 718.470145-738.266472-720.176725a85.328996 85.328996 0 1 1 119.204607-122.020464L817.622438 503.486619l660.446427-608.822384zM0 725.342008h1706.579916V896H0z"  horiz-adv-x="1706" />

    
    <glyph glyph-name="sc-icon-back-bottom" unicode="&#59127;" d="M1477.006705 872.616192a85.267677 85.267677 0 0 0 115.62297-125.343485l-778.920231-717.953843L75.888233 748.892793A85.267677 85.267677 0 1 0 195.092445 870.825571L817.034883 264.231315l659.971822 608.384877zM0 42.535353999999984h1705.353544v-170.535354H0z"  horiz-adv-x="1706" />

    
    <glyph glyph-name="sc-icon-home" unicode="&#59128;" d="M693.547 121.941c0 17.673-14.327 32-32 32h-284.245c-17.673 0-32-14.327-32-32v-164.309c-0.069-5.969-4.842-10.802-10.782-10.965l-173.581-0c-0.013-0-0.028-0-0.043-0-5.938 0-10.752 4.814-10.752 10.752 0 0.015 0 0.030 0 0.045l-0 459.39h-64v-459.349c0-41.387 33.451-74.795 74.795-74.795h173.568c41.3 0.169 74.723 33.652 74.795 74.959l0 132.316h220.245v-175.317c0-17.664 14.336-32 32-32h201.728c41.131 0 74.581 33.579 74.581 74.795v459.392h-64v-459.349c0-5.973-4.821-10.795-10.581-10.795h-169.728v175.275zM960.981 438.101l40.704 49.408-473.899 390.528c-5.485 4.545-12.594 7.302-20.347 7.302-7.777 0-14.906-2.774-20.451-7.387l-464.716-384.982 40.789-49.28 444.416 368.128 453.504-373.717z"  horiz-adv-x="1024" />

    
    <glyph glyph-name="sc-icon-task-details" unicode="&#59129;" d="M165.931 734.805h104.064c26.18 0 47.403 21.223 47.403 47.403s-21.223 47.403-47.403 47.403h-151.467c-26.197 0-47.403-21.205-47.403-47.36v-834.389c0-26.197 21.205-47.403 47.36-47.403h379.819c0.002-0 0.004-0 0.007-0 26.18 0 47.403 21.223 47.403 47.403 0 26.18-21.223 47.403-47.403 47.403-0.002 0-0.005-0-0.007-0l-332.373 0v739.541zM827.947 433.792c0.004-26.177 21.225-47.396 47.403-47.396s47.399 21.219 47.403 47.395l0 348.416c0 26.197-21.205 47.403-47.36 47.403h-150.059c-26.18-0-47.403-21.223-47.403-47.403 0-26.18 21.223-47.403 47.403-47.403h102.571v-301.013zM346.069 744.277h303.403v75.861h-303.36v-75.861zM725.333 896v-227.541h-455.125v227.541h455.125zM789.333-85.334c-106.039 0-192 85.961-192 192s85.961 192 192 192c106.039 0 192-85.961 192-192 0-106.039-85.961-192-192-192zM789.333-30.464c0.003 0 0.008 0 0.012 0 75.735 0 137.131 61.395 137.131 137.131 0 75.735-61.395 137.131-137.131 137.131-0.004 0-0.008 0-0.012 0-75.729-0.007-137.118-61.4-137.118-137.131 0-75.731 61.389-137.124 137.118-137.131zM768 192v-85.333c0-11.782 9.551-21.333 21.333-21.333s21.333 9.551 21.333 21.333v85.333c0 11.782-9.551 21.333-21.333 21.333s-21.333-9.551-21.333-21.333zM761.55 20.57c0-0.002 0-0.004 0-0.007 0-14.061 11.399-25.461 25.46-25.461 14.061 0 25.46 11.399 25.46 25.461 0 0.002 0 0.005 0 0.007 0 0.002 0 0.004 0 0.006 0 14.061-11.399 25.461-25.46 25.461-14.061 0-25.46-11.399-25.46-25.461 0-0.002 0-0.005 0-0.007zM270.208 478.805h455.125v75.861h-455.125zM270.208 327.125h341.333v75.819h-341.333zM270.208 175.403h189.653v75.904h-189.653z"  horiz-adv-x="1024" />

    
    <glyph glyph-name="sc-icon-parameter-details" unicode="&#59130;" d="M128.623 772.319h108.589c27.318 0 49.464 22.146 49.464 49.464 0 27.318-22.146 49.464-49.464 49.464h-158.052c-27.336 0-49.464-22.127-49.464-49.419v-870.667c0-27.336 22.127-49.464 49.419-49.464h396.333c0 0 0 0 0 0 27.318 0 49.464 22.146 49.464 49.464 0 27.318-22.146 49.464-49.464 49.464-0 0-0 0-0 0h-346.824v771.695zM819.423 458.218c0-27.318 22.146-49.464 49.464-49.464 27.318 0 49.464 22.146 49.464 49.464v363.565c0 27.336-22.127 49.464-49.419 49.464h-690.844c-0 0-0 0-0 0-27.318 0-49.464-22.146-49.464-49.464 0-27.318 22.146-49.464 49.464-49.464 0 0 0 0 0 0h641.291v-314.101zM405.326 539.826h-193.848c-18.442 0-33.391 14.95-33.391 33.391s14.95 33.391 33.391 33.391h193.848c-2.946-10.005-4.641-21.5-4.641-33.391 0-11.891 1.695-23.386 4.857-34.256zM640.979 539.826h82.499c18.442 0 33.391 14.95 33.391 33.391s-14.95 33.391-33.391 33.391h-82.543c2.946-10.005 4.641-21.5 4.641-33.391 0-11.891-1.695-23.386-4.857-34.256zM249.5 205.913h-38.022c-18.442 0-33.391 14.95-33.391 33.391s14.95 33.391 33.391 33.391l37.977 0c-2.946-10.005-4.641-21.5-4.641-33.391s1.695-23.386 4.857-34.256zM367.304 139.13c-0 0-0 0-0 0-55.325 0-100.174 44.849-100.174 100.174 0 55.325 44.849 100.174 100.174 100.174 0 0 0 0 0 0 55.325-0 100.174-44.849 100.174-100.174 0-55.325-44.849-100.174-100.174-100.174zM367.304 205.913c18.442 0 33.391 14.95 33.391 33.391s-14.95 33.391-33.391 33.391c-18.442 0-33.391-14.95-33.391-33.391 0-18.442 14.95-33.391 33.391-33.391zM523.13 473.043c-55.325 0-100.174 44.849-100.174 100.174s44.849 100.174 100.174 100.174c55.325 0 100.174-44.849 100.174-100.174 0-55.325-44.849-100.174-100.174-100.174zM523.13 539.826c18.442 0 33.391 14.95 33.391 33.391s-14.95 33.391-33.391 33.391c-18.442 0-33.391-14.95-33.391-33.391 0-18.442 14.95-33.391 33.391-33.391zM557.412 205.913c5.654 24.487 20.213 50.666 38.823 66.783h-106.496c2.946-10.005 4.641-21.5 4.641-33.391s-1.695-23.386-4.857-34.256l67.889 0.865zM802.319-83.478c-110.649 0-200.348 89.699-200.348 200.348s89.699 200.348 200.348 200.348c110.649 0 200.348-89.699 200.348-200.348 0-110.649-89.699-200.348-200.348-200.348zM802.319-26.223c0.004 0 0.008 0 0.012 0 79.028 0 143.093 64.065 143.093 143.093 0 79.028-64.065 143.093-143.093 143.093-0.004 0-0.008 0-0.013 0-79.022-0.007-143.080-64.069-143.080-143.093 0-79.024 64.058-143.086 143.080-143.093zM780.058 205.913v-89.043c0-0.001 0-0.003 0-0.005 0-12.294 9.967-22.261 22.261-22.261 12.294 0 22.261 9.967 22.261 22.261 0 0.002 0 0.003 0 0.005v89.043c0 0.001 0 0.003 0 0.005 0 12.294-9.967 22.261-22.261 22.261-12.294 0-22.261-9.967-22.261-22.261 0-0.002 0-0.003 0-0.005zM782.877 22.713c0 0 0 0 0 0 0-10.626 8.615-19.24 19.24-19.24 10.626 0 19.24 8.614 19.24 19.24 0 0 0 0 0 0 0 10.626-8.614 19.24-19.24 19.24-10.626 0-19.24-8.614-19.24-19.24z"  horiz-adv-x="1024" />

    
    <glyph glyph-name="sc-icon-more-fold" unicode="&#59131;" d="M478.207 89.94c-19.516-18.867-46.132-30.494-75.467-30.494-59.994 0-108.629 48.635-108.629 108.629 0 29.333 11.626 55.951 30.523 75.496l434.489 434.487c19.657 19.651 46.809 31.806 76.801 31.806s57.144-12.155 76.802-31.806l434.517-434.517c18.867-19.515 30.494-46.132 30.494-75.467 0-59.994-48.635-108.629-108.629-108.629-29.333 0-55.951 11.626-75.496 30.523l-357.687 357.688-357.717-357.717z"  horiz-adv-x="1706" />

    
    <glyph glyph-name="sc-icon-huakuanzhiling" unicode="&#59132;" d="M1056 10.667h-197.632c-29.455 0-53.333-23.878-53.333-53.333s23.878-53.333 53.333-53.333h250.965c29.44 0 53.333 23.893 53.333 53.333v853.333c0 29.44-23.893 53.333-53.333 53.333h-255.232c-29.455 0-53.333-23.878-53.333-53.333s23.878-53.333 53.333-53.333h201.899v-746.667zM138.667 10.667v746.667h205.013c0 0 0 0 0 0 29.455 0 53.333 23.878 53.333 53.333 0 29.455-23.878 53.333-53.333 53.333-0 0-0 0-0 0h-258.347c-29.44 0-53.333-23.893-53.333-53.333v-853.333c0-29.44 23.893-53.333 53.333-53.333h257.536c29.455 0 53.333 23.878 53.333 53.333s-23.878 53.333-53.333 53.333h-204.203zM749.44 451.371h-72.32l91.52 98.304c4.586 5.034 7.394 11.757 7.394 19.136s-2.808 14.102-7.415 19.159l-17.644 19.305c-4.9 4.926-11.684 7.974-19.179 7.974-7.432 0-14.163-2.997-19.052-7.848l-115.454-123.945-115.285 123.861c-9.771 10.667-28.587 10.496-38.229 0l-17.493-19.2c-4.58-5.021-7.385-11.729-7.385-19.093s2.805-14.073 7.406-19.116l91.713-98.538h-72.533c-15.36 0-27.733-12.544-27.733-27.819v-27.563c0-15.36 12.373-27.819 27.733-27.819h110.336v-27.349h-110.336c-15.36 0-27.733-12.501-27.733-27.819v-27.648c0-15.275 12.373-27.733 27.733-27.733h110.336v-82.773c0-15.317 12.501-27.776 27.776-27.776h27.733c15.317 0 27.776 12.459 27.776 27.819v82.688h110.336c0-0 0-0 0-0 15.317 0 27.733 12.417 27.733 27.733 0 0.015-0 0.030-0 0.045l0 27.646c0 0.013 0 0.028 0 0.043 0 15.325-12.411 27.752-27.731 27.776l-110.296 0v27.349h110.336c0-0 0-0 0-0 15.317 0 27.733 12.417 27.733 27.733 0 0.030-0 0.060-0 0.090l0 27.558c0 0.013 0 0.028 0 0.043 0 15.325-12.411 27.752-27.731 27.776z"  horiz-adv-x="1194" />

    
    <glyph glyph-name="sc-icon-immediately-execution" unicode="&#59125;" d="M101.76 836.907v-863.147h820.48v863.147h-820.48zM39.381 876.288h945.237c10.88 0 19.669-8.789 19.669-19.669v-945.237c-0.024-10.853-8.816-19.645-19.667-19.669l-945.24-0c-10.853 0.024-19.645 8.816-19.669 19.667l-0 945.24c0 10.88 8.789 19.669 19.669 19.669zM39.381 856.619h945.237v-157.525h-945.237v157.525zM162.688 738.432c22.699 0 41.088 17.664 41.088 39.424s-18.389 39.381-41.088 39.381-41.131-17.621-41.131-39.381 18.432-39.381 41.131-39.381zM327.083 738.432c22.699 0 41.088 17.664 41.088 39.424s-18.389 39.381-41.088 39.381-41.131-17.621-41.131-39.381 18.432-39.381 41.131-39.381zM491.435 738.432c22.699 0 41.131 17.664 41.131 39.424s-18.432 39.381-41.131 39.381-41.088-17.621-41.088-39.381 18.389-39.381 41.088-39.381zM333.525 401.621c-8.916 8.946-21.25 14.482-34.876 14.482-27.193 0-49.237-22.044-49.237-49.237 0-13.626 5.535-25.96 14.48-34.875l183.425-183.383c19.2-19.2 50.389-19.2 69.632 0l295.808 295.808c9.425 8.986 15.285 21.638 15.285 35.659 0 27.193-22.044 49.237-49.237 49.237-14.031 0-26.692-5.869-35.66-15.287l-261.011-261.012-148.608 148.608z"  horiz-adv-x="1024" />

    
    <glyph glyph-name="sc-icon-warn" unicode="&#59134;" d="M605.598 25.206h78.769c0-85.346-73.452-153.206-162.658-153.206-89.127 0-162.619 67.86-162.619 153.206h78.769c0-40.369 36.903-74.437 83.889-74.437 46.986 0 83.889 34.068 83.889 74.437zM499.496 742.794h-78.769v56.202c0 54.233 45.607 97.004 101.022 97.004 55.335 0 101.022-42.457 101.022-97.004v-56.202h-78.769v56.202c0 9.728-9.177 18.235-22.252 18.235-12.997 0-22.252-8.665-22.252-18.235v-56.202zM784.011 224.492v300.268c0 109.883-97.91 200.31-220.199 200.31h-103.582c-122.644 0-220.199-90.23-220.199-200.31v-300.268l-66.166-91.687h676.313l-66.166 91.687zM161.261 524.761c0 155.018 134.144 279.079 298.929 279.079h103.582c164.47 0 299.008-124.219 299.008-279.079v-274.826l67.426-93.42c35.446-49.113 4.923-102.479-54.981-102.479h-726.449c-59.746 0-90.624 53.051-54.981 102.479l67.466 93.42v274.826z"  horiz-adv-x="1024" />

    
    <glyph glyph-name="sc-icon-more-expansion" unicode="&#59135;" d="M529.652 659.681c-18.296 17.688-43.249 28.588-70.75 28.588-56.244 0-101.84-45.595-101.84-101.84 0-27.5 10.899-52.454 28.615-70.777l407.333-407.332c18.428-18.423 43.883-29.818 72.001-29.818s53.572 11.395 72.002 29.818l407.36 407.36c17.688 18.295 28.588 43.249 28.588 70.75 0 56.244-45.595 101.84-101.84 101.84-27.5 0-52.454-10.899-70.778-28.615l-335.332-335.332-335.36 335.36z"  horiz-adv-x="1706" />

    
    <glyph glyph-name="sc-icon-copy" unicode="&#59133;" d="M683.221 144.512l-1.835 526.805-150.187 117.333h-359.893v-644.139h511.872zM88.747 103.253v726.699c0 22.784 18.475 41.259 41.259 41.259h415.317c9.216 0 18.176-3.072 25.429-8.747l177.237-138.411c9.682-7.616 15.85-19.324 15.872-32.473l2.048-588.199c0-0.038 0-0.083 0-0.128 0-22.81-18.491-41.301-41.301-41.301-0 0-0 0-0 0l-594.56-0c-22.777 0.024-41.234 18.482-41.259 41.256zM328.277-20.651c-0.396 0.014-0.861 0.021-1.327 0.021-22.81 0-41.301-18.491-41.301-41.301 0-22.81 18.491-41.301 41.301-41.301 0.467 0 0.932 0.008 1.395 0.023l561.426-0.002c22.912 0 41.387 18.56 41.344 41.387l-2.048 555.307c0.011 0.348 0.017 0.758 0.017 1.17 0 22.81-18.491 41.301-41.301 41.301-22.81 0-41.301-18.491-41.301-41.301 0-0.516 0.009-1.030 0.028-1.542l1.875-513.761h-520.107zM295.253 590.464h110.933c0.396-0.014 0.861-0.021 1.327-0.021 22.81 0 41.301 18.491 41.301 41.301 0 22.81-18.491 41.301-41.301 41.301-0.467 0-0.932-0.008-1.395-0.023l-110.866 0.002c-22.232-0.737-39.974-18.937-39.974-41.28s17.742-40.543 39.907-41.278zM295.253 433.536h264.235c18.25 0 33.045 14.795 33.045 33.045s-14.795 33.045-33.045 33.045h-264.277c-18.25 0-33.045-14.795-33.045-33.045s14.795-33.045 33.045-33.045zM295.253 268.373h215.040c18.25 0 33.045 14.795 33.045 33.045s-14.795 33.045-33.045 33.045h-215.040c-18.25 0-33.045-14.795-33.045-33.045s14.795-33.045 33.045-33.045z"  horiz-adv-x="1024" />

    
    <glyph glyph-name="sc-icon-xinzhaiguanli1" unicode="&#59136;" d="M352.142-93.468l232.676 715.093 290.020-695.353 166.059 496.981-75.093 25.031-99.157-296.846-291.044 697.742-233.244-716.914-170.667 402.546-154.795-417.564 74.183-27.534 85.561 230.798z"  horiz-adv-x="1080" />

    
    <glyph glyph-name="sc-icon-xinguguanli2" unicode="&#59137;" d="M90.738-102.059h84.196v259.243h-84.196v-259.243zM349.98-102.059h84.196v382.35h-84.196v-382.35zM641.593-102.059h84.252v479.573h-84.196v-479.573zM913.806-102.059h77.767v622.137h-77.767v-622.137zM965.689 623.844l58.311 272.156-317.554-64.853 97.223-77.71-272.213-239.844-136.135 103.708-395.321-349.924 58.311-45.34 337.010 298.098 136.135-103.708 330.524 291.612 103.708-84.196z"  horiz-adv-x="1024" />

    
    <glyph glyph-name="sc-icon-renwudiaodu" unicode="&#59138;" d="M845.767 709.404v-747.804h-699.278v747.804h134.997c21.208 0 38.4 17.192 38.4 38.4 0 21.208-17.192 38.4-38.4 38.4h-173.397c0 0 0 0 0 0-21.208 0-38.4-17.192-38.4-38.4v-824.604c0-21.22 17.18-38.4 38.4-38.4h776.078c21.208 0 38.4 17.192 38.4 38.4v824.604c0 21.208-17.192 38.4-38.4 38.4h-168.107c-21.208-0-38.4-17.192-38.4-38.4 0-21.208 17.192-38.4 38.4-38.4h129.707zM340.537 737.678h311.182v68.722h-311.182v-68.722zM728.519 883.2v-222.322h-464.782v222.322h464.782zM271.701 530.83l-36.181-36.181 73.5-73.557 114.574 114.574-36.238 36.181-78.336-78.336zM271.701 336.782l-36.181-36.181 73.5-73.5 114.574 114.517-36.238 36.238-78.336-78.336zM271.701 142.791l-36.181-36.181 73.5-73.557 114.574 114.574-36.238 36.181-78.336-78.336zM471.609 469.504h291.1v76.8h-291.1zM471.609 275.513h291.1v76.8h-291.1zM471.609 81.465h291.1v76.8h-291.1z"  horiz-adv-x="1024" />

    
    <glyph glyph-name="sc-icon-yejibaochou" unicode="&#59139;" d="M505.572 85.731c-18.116 0.032-32.793 14.709-32.825 32.822l-0 98.591h-98.588c-17.562 0.754-31.514 15.174-31.514 32.853 0 17.679 13.952 32.1 31.446 32.851l98.656 0.002v65.707h-98.588c-17.562 0.754-31.514 15.174-31.514 32.853s13.952 32.1 31.446 32.851l98.656 0.002v19.342l-121.799 121.742c-5.94 5.923-9.615 14.114-9.615 23.164 0 0.076 0 0.153 0.001 0.229-0 0.022-0 0.062-0 0.102 0 18.129 14.696 32.825 32.825 32.825 9.093 0 17.322-3.697 23.266-9.67l108.318-108.431 108.259 108.259c5.952 5.96 14.179 9.646 23.268 9.646 18.162 0 32.885-14.723 32.885-32.885 0-9.074-3.675-17.289-9.618-23.239l-121.856-121.856v-19.342h98.588c17.309-1.051 30.948-15.345 30.948-32.825s-13.64-31.774-30.856-32.82l-98.68-0.004v-65.707h98.588c17.562-0.754 31.514-15.174 31.514-32.853s-13.952-32.1-31.446-32.851l-98.656-0.002v-98.588c-0.256-18.125-14.962-32.731-33.102-32.825zM0.001 384.91c-0 0.229-0.001 0.5-0.001 0.771 0 140.893 57.209 268.425 149.664 360.633 92.23 92.478 219.762 149.686 360.655 149.686 0.271 0 0.542-0 0.813-0.001 0.187 0 0.458 0.001 0.729 0.001 140.893 0 268.425-57.209 360.633-149.664 92.478-92.239 149.686-219.778 149.686-360.679 0-0.263-0-0.525-0.001-0.788 0 0.034 0 0.025 0 0.017 0-130.47-48.893-249.52-129.356-339.827-6.702-7.097-16.827-11.835-28.059-11.835-21.585 0-39.083 17.498-39.083 39.083 0 9.604 3.464 18.398 9.211 25.203 67.751 76.003 109.179 176.851 109.179 287.376 0 0.009-0 0.018-0 0.027 0 238.704-194.275 432.923-432.981 432.923s-432.924-194.218-432.924-432.924 194.218-432.924 432.924-432.924c72.647 0 144.498 18.318 207.701 52.907 5.728 3.481 12.653 5.541 20.060 5.541 21.585 0 39.083-17.498 39.083-39.083 0-15.21-8.689-28.391-21.374-34.85-71.054-39.529-155.587-62.741-245.542-62.741-71.813 0-140.17 14.793-202.192 41.497-90.677 39.083-167.748 103.77-222.094 184.953-29.523 15.503-86.731 143.035-86.731 283.928 0 0.271 0 0.542 0.001 0.813z"  horiz-adv-x="1024" />

    
    <glyph glyph-name="sc-icon-zhaomushuoming" unicode="&#59140;" d="M559.289 681.069l-1.991-11.946 1.934 5.802v6.144zM78.785 38.785l277.369-5.233c11.121-0.221 21.080-5.021 28.1-12.586 36.561-36.544 81.864-64.815 132.473-81.358-59.432 23.863-29.966 11.291-5.619 11.177 25.882 0.455 55.349 13.425 85.725 35.382 44.179 32.38 79.706 73.955 104.224 122.077-53.199-76.399-42.903-71.848-32.038-71.735l276.117 2.617v773.971l-324.868-31.969c-13.254-1.308-31.173-15.586-35.268-28.101l-25.826-78.102-4.096-464.747-78.785 0.91c4.333 254.978 6.822 556.195 6.858 857.985-2.080-490.511-1.625-398.131-2.535-390.565-4.805 18.482-12.577 34.667-22.88 48.899-21.396 54.692-67.231 120.899-122.963 177.305 107.503-141.105 84.977-125.689 69.334-124.153l-325.379 32.424v-774.198zM38.625-39.203c-21.42 0.415-38.625 17.877-38.625 39.357 0 0.002 0 0.005 0 0.007l-0 856.396c0 23.323 20.137 41.526 43.289 39.193l368.726-36.861c40.274-3.982 84.075-32.709 104.099-67.124 18.032 35.837 57.283 63.938 96.362 67.749l368.214 36.292c23.152 2.275 43.232-15.928 43.232-39.25v-856.34c0-21.616-17.407-39.193-39.023-39.421l-298.928-2.844c-44.81-42.477-99.324-75.188-159.839-94.442 74.626 28.399 31.508 9.4-11.895 8.547h-3.584c-43.574 0.228-86.863 18.658-129.185 48.636-50.753 35.999-92.064 81.915-121.776 135.184l-221.067-95.080z"  horiz-adv-x="1024" />

    
    </font>
</defs>
</svg>
